<svg id="visual" viewBox="0 0 4000 2000" width="4000" height="2000" xmlns="http://www.w3.org/2000/svg" xmlns:xlink="http://www.w3.org/1999/xlink" version="1.1"><rect width="4000" height="2000" fill="#001829"></rect><g><g transform="translate(2992 687)"><path d="M0 -83.6L72.4 -41.8L72.4 41.8L0 83.6L-72.4 41.8L-72.4 -41.8Z" fill="#2bb5f7"></path></g><g transform="translate(2420 1499)"><path d="M0 -26L22.5 -13L22.5 13L0 26L-22.5 13L-22.5 -13Z" fill="#2bb5f7"></path></g><g transform="translate(1982 1708)"><path d="M0 -25L21.7 -12.5L21.7 12.5L0 25L-21.7 12.5L-21.7 -12.5Z" fill="#2bb5f7"></path></g><g transform="translate(3631 1203)"><path d="M0 -34L29.4 -17L29.4 17L0 34L-29.4 17L-29.4 -17Z" fill="#2bb5f7"></path></g><g transform="translate(3309 1882)"><path d="M0 -24L20.8 -12L20.8 12L0 24L-20.8 12L-20.8 -12Z" fill="#2bb5f7"></path></g><g transform="translate(1598 1349)"><path d="M0 -13L11.3 -6.5L11.3 6.5L0 13L-11.3 6.5L-11.3 -6.5Z" fill="#2bb5f7"></path></g><g transform="translate(68 1466)"><path d="M0 -63L54.6 -31.5L54.6 31.5L0 63L-54.6 31.5L-54.6 -31.5Z" fill="#2bb5f7"></path></g><g transform="translate(1147 1409)"><path d="M0 -79L68.4 -39.5L68.4 39.5L0 79L-68.4 39.5L-68.4 -39.5Z" fill="#2bb5f7"></path></g><g transform="translate(2081 363)"><path d="M0 -71L61.5 -35.5L61.5 35.5L0 71L-61.5 35.5L-61.5 -35.5Z" fill="#2bb5f7"></path></g><g transform="translate(1421 1551)"><path d="M0 -31L26.8 -15.5L26.8 15.5L0 31L-26.8 15.5L-26.8 -15.5Z" fill="#2bb5f7"></path></g><g transform="translate(1333 902)"><path d="M0 -42L36.4 -21L36.4 21L0 42L-36.4 21L-36.4 -21Z" fill="#2bb5f7"></path></g><g transform="translate(1763 1960)"><path d="M0 -81L70.1 -40.5L70.1 40.5L0 81L-70.1 40.5L-70.1 -40.5Z" fill="#2bb5f7"></path></g><g transform="translate(3441 1476)"><path d="M0 -40L34.6 -20L34.6 20L0 40L-34.6 20L-34.6 -20Z" fill="#2bb5f7"></path></g><g transform="translate(2502 1319)"><path d="M0 -46L39.8 -23L39.8 23L0 46L-39.8 23L-39.8 -23Z" fill="#2bb5f7"></path></g><g transform="translate(3897 1718)"><path d="M0 -61L52.8 -30.5L52.8 30.5L0 61L-52.8 30.5L-52.8 -30.5Z" fill="#2bb5f7"></path></g><g transform="translate(2105 1380)"><path d="M0 -26L22.5 -13L22.5 13L0 26L-22.5 13L-22.5 -13Z" fill="#2bb5f7"></path></g><g transform="translate(3965 522)"><path d="M0 -81L70.1 -40.5L70.1 40.5L0 81L-70.1 40.5L-70.1 -40.5Z" fill="#2bb5f7"></path></g><g transform="translate(2111 1967)"><path d="M0 -59L51.1 -29.5L51.1 29.5L0 59L-51.1 29.5L-51.1 -29.5Z" fill="#2bb5f7"></path></g><g transform="translate(2787 1606)"><path d="M0 -51L44.2 -25.5L44.2 25.5L0 51L-44.2 25.5L-44.2 -25.5Z" fill="#2bb5f7"></path></g><g transform="translate(3615 1431)"><path d="M0 -24L20.8 -12L20.8 12L0 24L-20.8 12L-20.8 -12Z" fill="#2bb5f7"></path></g><g transform="translate(3569 1640)"><path d="M0 -42L36.4 -21L36.4 21L0 42L-36.4 21L-36.4 -21Z" fill="#2bb5f7"></path></g><g transform="translate(2609 1728)"><path d="M0 -43L37.2 -21.5L37.2 21.5L0 43L-37.2 21.5L-37.2 -21.5Z" fill="#2bb5f7"></path></g><g transform="translate(60 582)"><path d="M0 -50L43.3 -25L43.3 25L0 50L-43.3 25L-43.3 -25Z" fill="#2bb5f7"></path></g><g transform="translate(2237 824)"><path d="M0 -40L34.6 -20L34.6 20L0 40L-34.6 20L-34.6 -20Z" fill="#2bb5f7"></path></g><g transform="translate(2732 1959)"><path d="M0 -20L17.3 -10L17.3 10L0 20L-17.3 10L-17.3 -10Z" fill="#2bb5f7"></path></g><g transform="translate(2283 1080)"><path d="M0 -46L39.8 -23L39.8 23L0 46L-39.8 23L-39.8 -23Z" fill="#2bb5f7"></path></g><g transform="translate(1808 621)"><path d="M0 -11L9.5 -5.5L9.5 5.5L0 11L-9.5 5.5L-9.5 -5.5Z" fill="#2bb5f7"></path></g><g transform="translate(392 875)"><path d="M0 -64L55.4 -32L55.4 32L0 64L-55.4 32L-55.4 -32Z" fill="#2bb5f7"></path></g><g transform="translate(1266 1878)"><path d="M0 -69L59.8 -34.5L59.8 34.5L0 69L-59.8 34.5L-59.8 -34.5Z" fill="#2bb5f7"></path></g><g transform="translate(150 174)"><path d="M0 -74L64.1 -37L64.1 37L0 74L-64.1 37L-64.1 -37Z" fill="#2bb5f7"></path></g><g transform="translate(1640 662)"><path d="M0 -46L39.8 -23L39.8 23L0 46L-39.8 23L-39.8 -23Z" fill="#2bb5f7"></path></g><g transform="translate(484 58)"><path d="M0 -32L27.7 -16L27.7 16L0 32L-27.7 16L-27.7 -16Z" fill="#2bb5f7"></path></g><g transform="translate(3688 802)"><path d="M0 -21L18.2 -10.5L18.2 10.5L0 21L-18.2 10.5L-18.2 -10.5Z" fill="#2bb5f7"></path></g><g transform="translate(633 831)"><path d="M0 -70L60.6 -35L60.6 35L0 70L-60.6 35L-60.6 -35Z" fill="#2bb5f7"></path></g><g transform="translate(3215 1429)"><path d="M0 -27L23.4 -13.5L23.4 13.5L0 27L-23.4 13.5L-23.4 -13.5Z" fill="#2bb5f7"></path></g><g transform="translate(297 1749)"><path d="M0 -22L19.1 -11L19.1 11L0 22L-19.1 11L-19.1 -11Z" fill="#2bb5f7"></path></g><g transform="translate(3722 509)"><path d="M0 -19L16.5 -9.5L16.5 9.5L0 19L-16.5 9.5L-16.5 -9.5Z" fill="#2bb5f7"></path></g><g transform="translate(782 1139)"><path d="M0 -54L46.8 -27L46.8 27L0 54L-46.8 27L-46.8 -27Z" fill="#2bb5f7"></path></g><g transform="translate(1405 281)"><path d="M0 -26L22.5 -13L22.5 13L0 26L-22.5 13L-22.5 -13Z" fill="#2bb5f7"></path></g><g transform="translate(2970 304)"><path d="M0 -52L45 -26L45 26L0 52L-45 26L-45 -26Z" fill="#2bb5f7"></path></g><g transform="translate(3452 714)"><path d="M0 -38L32.9 -19L32.9 19L0 38L-32.9 19L-32.9 -19Z" fill="#2bb5f7"></path></g><g transform="translate(820 761)"><path d="M0 -78L67.5 -39L67.5 39L0 78L-67.5 39L-67.5 -39Z" fill="#2bb5f7"></path></g><g transform="translate(1033 462)"><path d="M0 -35L30.3 -17.5L30.3 17.5L0 35L-30.3 17.5L-30.3 -17.5Z" fill="#2bb5f7"></path></g><g transform="translate(3857 1884)"><path d="M0 -18L15.6 -9L15.6 9L0 18L-15.6 9L-15.6 -9Z" fill="#2bb5f7"></path></g><g transform="translate(2800 146)"><path d="M0 -32L27.7 -16L27.7 16L0 32L-27.7 16L-27.7 -16Z" fill="#2bb5f7"></path></g><g transform="translate(2381 232)"><path d="M0 -65L56.3 -32.5L56.3 32.5L0 65L-56.3 32.5L-56.3 -32.5Z" fill="#2bb5f7"></path></g><g transform="translate(3126 1069)"><path d="M0 -33L28.6 -16.5L28.6 16.5L0 33L-28.6 16.5L-28.6 -16.5Z" fill="#2bb5f7"></path></g><g transform="translate(1579 1138)"><path d="M0 -76L65.8 -38L65.8 38L0 76L-65.8 38L-65.8 -38Z" fill="#2bb5f7"></path></g><g transform="translate(810 97)"><path d="M0 -30L26 -15L26 15L0 30L-26 15L-26 -15Z" fill="#2bb5f7"></path></g><g transform="translate(2891 829)"><path d="M0 -32L27.7 -16L27.7 16L0 32L-27.7 16L-27.7 -16Z" fill="#2bb5f7"></path></g><g transform="translate(2034 1184)"><path d="M0 -24L20.8 -12L20.8 12L0 24L-20.8 12L-20.8 -12Z" fill="#2bb5f7"></path></g><g transform="translate(1132 797)"><path d="M0 -36L31.2 -18L31.2 18L0 36L-31.2 18L-31.2 -18Z" fill="#2bb5f7"></path></g><g transform="translate(3100 1254)"><path d="M0 -33L28.6 -16.5L28.6 16.5L0 33L-28.6 16.5L-28.6 -16.5Z" fill="#2bb5f7"></path></g><g transform="translate(1830 1150)"><path d="M0 -18L15.6 -9L15.6 9L0 18L-15.6 9L-15.6 -9Z" fill="#2bb5f7"></path></g><g transform="translate(314 1561)"><path d="M0 -76L65.8 -38L65.8 38L0 76L-65.8 38L-65.8 -38Z" fill="#2bb5f7"></path></g><g transform="translate(671 487)"><path d="M0 -48L41.6 -24L41.6 24L0 48L-41.6 24L-41.6 -24Z" fill="#2bb5f7"></path></g><g transform="translate(1104 124)"><path d="M0 -48L41.6 -24L41.6 24L0 48L-41.6 24L-41.6 -24Z" fill="#2bb5f7"></path></g><g transform="translate(1420 752)"><path d="M0 -29L25.1 -14.5L25.1 14.5L0 29L-25.1 14.5L-25.1 -14.5Z" fill="#2bb5f7"></path></g><g transform="translate(1248 457)"><path d="M0 -51L44.2 -25.5L44.2 25.5L0 51L-44.2 25.5L-44.2 -25.5Z" fill="#2bb5f7"></path></g><g transform="translate(64 1030)"><path d="M0 -50L43.3 -25L43.3 25L0 50L-43.3 25L-43.3 -25Z" fill="#2bb5f7"></path></g><g transform="translate(314 1940)"><path d="M0 -14L12.1 -7L12.1 7L0 14L-12.1 7L-12.1 -7Z" fill="#2bb5f7"></path></g><g transform="translate(382 320)"><path d="M0 -39L33.8 -19.5L33.8 19.5L0 39L-33.8 19.5L-33.8 -19.5Z" fill="#2bb5f7"></path></g><g transform="translate(3910 148)"><path d="M0 -45L39 -22.5L39 22.5L0 45L-39 22.5L-39 -22.5Z" fill="#2bb5f7"></path></g><g transform="translate(1454 1774)"><path d="M0 -38L32.9 -19L32.9 19L0 38L-32.9 19L-32.9 -19Z" fill="#2bb5f7"></path></g><g transform="translate(833 1994)"><path d="M0 -14L12.1 -7L12.1 7L0 14L-12.1 7L-12.1 -7Z" fill="#2bb5f7"></path></g><g transform="translate(532 1114)"><path d="M0 -51L44.2 -25.5L44.2 25.5L0 51L-44.2 25.5L-44.2 -25.5Z" fill="#2bb5f7"></path></g><g transform="translate(3745 1562)"><path d="M0 -26L22.5 -13L22.5 13L0 26L-22.5 13L-22.5 -13Z" fill="#2bb5f7"></path></g><g transform="translate(2791 466)"><path d="M0 -57L49.4 -28.5L49.4 28.5L0 57L-49.4 28.5L-49.4 -28.5Z" fill="#2bb5f7"></path></g><g transform="translate(2225 127)"><path d="M0 -59L51.1 -29.5L51.1 29.5L0 59L-51.1 29.5L-51.1 -29.5Z" fill="#2bb5f7"></path></g><g transform="translate(2015 86)"><path d="M0 -80L69.3 -40L69.3 40L0 80L-69.3 40L-69.3 -40Z" fill="#2bb5f7"></path></g><g transform="translate(1890 1487)"><path d="M0 -26L22.5 -13L22.5 13L0 26L-22.5 13L-22.5 -13Z" fill="#2bb5f7"></path></g><g transform="translate(2363 1825)"><path d="M0 -76L65.8 -38L65.8 38L0 76L-65.8 38L-65.8 -38Z" fill="#2bb5f7"></path></g><g transform="translate(3396 1050)"><path d="M0 -76L65.8 -38L65.8 38L0 76L-65.8 38L-65.8 -38Z" fill="#2bb5f7"></path></g><g transform="translate(1699 1689)"><path d="M0 -34L29.4 -17L29.4 17L0 34L-29.4 17L-29.4 -17Z" fill="#2bb5f7"></path></g><g transform="translate(3199 373)"><path d="M0 -17L14.7 -8.5L14.7 8.5L0 17L-14.7 8.5L-14.7 -8.5Z" fill="#2bb5f7"></path></g><g transform="translate(460 1844)"><path d="M0 -32L27.7 -16L27.7 16L0 32L-27.7 16L-27.7 -16Z" fill="#2bb5f7"></path></g><g transform="translate(82 1911)"><path d="M0 -50L43.3 -25L43.3 25L0 50L-43.3 25L-43.3 -25Z" fill="#2bb5f7"></path></g><g transform="translate(2258 1606)"><path d="M0 -79L68.4 -39.5L68.4 39.5L0 79L-68.4 39.5L-68.4 -39.5Z" fill="#2bb5f7"></path></g><g transform="translate(3363 1251)"><path d="M0 -38L32.9 -19L32.9 19L0 38L-32.9 19L-32.9 -19Z" fill="#2bb5f7"></path></g><g transform="translate(912 1708)"><path d="M0 -77L66.7 -38.5L66.7 38.5L0 77L-66.7 38.5L-66.7 -38.5Z" fill="#2bb5f7"></path></g><g transform="translate(2044 907)"><path d="M0 -62L53.7 -31L53.7 31L0 62L-53.7 31L-53.7 -31Z" fill="#2bb5f7"></path></g><g transform="translate(3026 13)"><path d="M0 -75L65 -37.5L65 37.5L0 75L-65 37.5L-65 -37.5Z" fill="#2bb5f7"></path></g><g transform="translate(2423 792)"><path d="M0 -46L39.8 -23L39.8 23L0 46L-39.8 23L-39.8 -23Z" fill="#2bb5f7"></path></g><g transform="translate(3506 1897)"><path d="M0 -39L33.8 -19.5L33.8 19.5L0 39L-33.8 19.5L-33.8 -19.5Z" fill="#2bb5f7"></path></g><g transform="translate(3795 1055)"><path d="M0 -59L51.1 -29.5L51.1 29.5L0 59L-51.1 29.5L-51.1 -29.5Z" fill="#2bb5f7"></path></g><g transform="translate(509 704)"><path d="M0 -46L39.8 -23L39.8 23L0 46L-39.8 23L-39.8 -23Z" fill="#2bb5f7"></path></g><g transform="translate(2993 1634)"><path d="M0 -61L52.8 -30.5L52.8 30.5L0 61L-52.8 30.5L-52.8 -30.5Z" fill="#2bb5f7"></path></g><g transform="translate(1141 1707)"><path d="M0 -55L47.6 -27.5L47.6 27.5L0 55L-47.6 27.5L-47.6 -27.5Z" fill="#2bb5f7"></path></g><g transform="translate(273 1178)"><path d="M0 -78L67.5 -39L67.5 39L0 78L-67.5 39L-67.5 -39Z" fill="#2bb5f7"></path></g><g transform="translate(1004 642)"><path d="M0 -52L45 -26L45 26L0 52L-45 26L-45 -26Z" fill="#2bb5f7"></path></g><g transform="translate(3278 195)"><path d="M0 -22L19.1 -11L19.1 11L0 22L-19.1 11L-19.1 -11Z" fill="#2bb5f7"></path></g><g transform="translate(135 1292)"><path d="M0 -19L16.5 -9.5L16.5 9.5L0 19L-16.5 9.5L-16.5 -9.5Z" fill="#2bb5f7"></path></g><g transform="translate(2702 1144)"><path d="M0 -42L36.4 -21L36.4 21L0 42L-36.4 21L-36.4 -21Z" fill="#2bb5f7"></path></g><g transform="translate(3411 318)"><path d="M0 -62L53.7 -31L53.7 31L0 62L-53.7 31L-53.7 -31Z" fill="#2bb5f7"></path></g><g transform="translate(2269 481)"><path d="M0 -69L59.8 -34.5L59.8 34.5L0 69L-59.8 34.5L-59.8 -34.5Z" fill="#2bb5f7"></path></g><g transform="translate(2919 1385)"><path d="M0 -38L32.9 -19L32.9 19L0 38L-32.9 19L-32.9 -19Z" fill="#2bb5f7"></path></g><g transform="translate(3992 977)"><path d="M0 -51L44.2 -25.5L44.2 25.5L0 51L-44.2 25.5L-44.2 -25.5Z" fill="#2bb5f7"></path></g><g transform="translate(2477 531)"><path d="M0 -26L22.5 -13L22.5 13L0 26L-22.5 13L-22.5 -13Z" fill="#2bb5f7"></path></g><g transform="translate(388 1397)"><path d="M0 -24L20.8 -12L20.8 12L0 24L-20.8 12L-20.8 -12Z" fill="#2bb5f7"></path></g><g transform="translate(1056 1248)"><path d="M0 -18L15.6 -9L15.6 9L0 18L-15.6 9L-15.6 -9Z" fill="#2bb5f7"></path></g><g transform="translate(1607 853)"><path d="M0 -77L66.7 -38.5L66.7 38.5L0 77L-66.7 38.5L-66.7 -38.5Z" fill="#2bb5f7"></path></g><g transform="translate(2537 369)"><path d="M0 -50L43.3 -25L43.3 25L0 50L-43.3 25L-43.3 -25Z" fill="#2bb5f7"></path></g><g transform="translate(1615 234)"><path d="M0 -40L34.6 -20L34.6 20L0 40L-34.6 20L-34.6 -20Z" fill="#2bb5f7"></path></g><g transform="translate(1391 1069)"><path d="M0 -56L48.5 -28L48.5 28L0 56L-48.5 28L-48.5 -28Z" fill="#2bb5f7"></path></g><g transform="translate(3596 52)"><path d="M0 -81L70.1 -40.5L70.1 40.5L0 81L-70.1 40.5L-70.1 -40.5Z" fill="#2bb5f7"></path></g><g transform="translate(1008 941)"><path d="M0 -18L15.6 -9L15.6 9L0 18L-15.6 9L-15.6 -9Z" fill="#2bb5f7"></path></g><g transform="translate(1412 1271)"><path d="M0 -28L24.2 -14L24.2 14L0 28L-24.2 14L-24.2 -14Z" fill="#2bb5f7"></path></g><g transform="translate(1465 485)"><path d="M0 -13L11.3 -6.5L11.3 6.5L0 13L-11.3 6.5L-11.3 -6.5Z" fill="#2bb5f7"></path></g><g transform="translate(2698 1364)"><path d="M0 -13L11.3 -6.5L11.3 6.5L0 13L-11.3 6.5L-11.3 -6.5Z" fill="#2bb5f7"></path></g><g transform="translate(430 488)"><path d="M0 -65L56.3 -32.5L56.3 32.5L0 65L-56.3 32.5L-56.3 -32.5Z" fill="#2bb5f7"></path></g><g transform="translate(1812 245)"><path d="M0 -36L31.2 -18L31.2 18L0 36L-31.2 18L-31.2 -18Z" fill="#2bb5f7"></path></g><g transform="translate(809 1401)"><path d="M0 -70L60.6 -35L60.6 35L0 70L-60.6 35L-60.6 -35Z" fill="#2bb5f7"></path></g><g transform="translate(2566 1934)"><path d="M0 -76L65.8 -38L65.8 38L0 76L-65.8 38L-65.8 -38Z" fill="#2bb5f7"></path></g><g transform="translate(2934 1918)"><path d="M0 -23L19.9 -11.5L19.9 11.5L0 23L-19.9 11.5L-19.9 -11.5Z" fill="#2bb5f7"></path></g><g transform="translate(3158 852)"><path d="M0 -14L12.1 -7L12.1 7L0 14L-12.1 7L-12.1 -7Z" fill="#2bb5f7"></path></g><g transform="translate(573 1291)"><path d="M0 -23L19.9 -11.5L19.9 11.5L0 23L-19.9 11.5L-19.9 -11.5Z" fill="#2bb5f7"></path></g><g transform="translate(1514 1995)"><path d="M0 -76L65.8 -38L65.8 38L0 76L-65.8 38L-65.8 -38Z" fill="#2bb5f7"></path></g><g transform="translate(2527 1034)"><path d="M0 -54L46.8 -27L46.8 27L0 54L-46.8 27L-46.8 -27Z" fill="#2bb5f7"></path></g><g transform="translate(3200 679)"><path d="M0 -53L45.9 -26.5L45.9 26.5L0 53L-45.9 26.5L-45.9 -26.5Z" fill="#2bb5f7"></path></g><g transform="translate(630 1707)"><path d="M0 -36L31.2 -18L31.2 18L0 36L-31.2 18L-31.2 -18Z" fill="#2bb5f7"></path></g><g transform="translate(1 747)"><path d="M0 -72L62.4 -36L62.4 36L0 72L-62.4 36L-62.4 -36Z" fill="#2bb5f7"></path></g><g transform="translate(885 327)"><path d="M0 -26L22.5 -13L22.5 13L0 26L-22.5 13L-22.5 -13Z" fill="#2bb5f7"></path></g><g transform="translate(3323 546)"><path d="M0 -77L66.7 -38.5L66.7 38.5L0 77L-66.7 38.5L-66.7 -38.5Z" fill="#2bb5f7"></path></g><g transform="translate(2914 1094)"><path d="M0 -74L64.1 -37L64.1 37L0 74L-64.1 37L-64.1 -37Z" fill="#2bb5f7"></path></g><g transform="translate(3894 345)"><path d="M0 -43L37.2 -21.5L37.2 21.5L0 43L-37.2 21.5L-37.2 -21.5Z" fill="#2bb5f7"></path></g><g transform="translate(195 711)"><path d="M0 -23L19.9 -11.5L19.9 11.5L0 23L-19.9 11.5L-19.9 -11.5Z" fill="#2bb5f7"></path></g><g transform="translate(1044 1984)"><path d="M0 -11L9.5 -5.5L9.5 5.5L0 11L-9.5 5.5L-9.5 -5.5Z" fill="#2bb5f7"></path></g><g transform="translate(1675 1514)"><path d="M0 -71L61.5 -35.5L61.5 35.5L0 71L-61.5 35.5L-61.5 -35.5Z" fill="#2bb5f7"></path></g><g transform="translate(1735 421)"><path d="M0 -63L54.6 -31.5L54.6 31.5L0 63L-54.6 31.5L-54.6 -31.5Z" fill="#2bb5f7"></path></g><g transform="translate(3207 1661)"><path d="M0 -50L43.3 -25L43.3 25L0 50L-43.3 25L-43.3 -25Z" fill="#2bb5f7"></path></g><g transform="translate(2041 632)"><path d="M0 -62L53.7 -31L53.7 31L0 62L-53.7 31L-53.7 -31Z" fill="#2bb5f7"></path></g><g transform="translate(3807 1288)"><path d="M0 -76L65.8 -38L65.8 38L0 76L-65.8 38L-65.8 -38Z" fill="#2bb5f7"></path></g><g transform="translate(3687 1990)"><path d="M0 -80L69.3 -40L69.3 40L0 80L-69.3 40L-69.3 -40Z" fill="#2bb5f7"></path></g><g transform="translate(1835 71)"><path d="M0 -77L66.7 -38.5L66.7 38.5L0 77L-66.7 38.5L-66.7 -38.5Z" fill="#2bb5f7"></path></g><g transform="translate(2452 32)"><path d="M0 -58L50.2 -29L50.2 29L0 58L-50.2 29L-50.2 -29Z" fill="#2bb5f7"></path></g><g transform="translate(818 929)"><path d="M0 -44L38.1 -22L38.1 22L0 44L-38.1 22L-38.1 -22Z" fill="#2bb5f7"></path></g><g transform="translate(225 23)"><path d="M0 -47L40.7 -23.5L40.7 23.5L0 47L-40.7 23.5L-40.7 -23.5Z" fill="#2bb5f7"></path></g><g transform="translate(1935 1919)"><path d="M0 -47L40.7 -23.5L40.7 23.5L0 47L-40.7 23.5L-40.7 -23.5Z" fill="#2bb5f7"></path></g><g transform="translate(574 1990)"><path d="M0 -17L14.7 -8.5L14.7 8.5L0 17L-14.7 8.5L-14.7 -8.5Z" fill="#2bb5f7"></path></g><g transform="translate(3127 1982)"><path d="M0 -23L19.9 -11.5L19.9 11.5L0 23L-19.9 11.5L-19.9 -11.5Z" fill="#2bb5f7"></path></g><g transform="translate(959 17)"><path d="M0 -82L71 -41L71 41L0 82L-71 41L-71 -41Z" fill="#2bb5f7"></path></g><g transform="translate(3404 1704)"><path d="M0 -48L41.6 -24L41.6 24L0 48L-41.6 24L-41.6 -24Z" fill="#2bb5f7"></path></g><g transform="translate(26 1645)"><path d="M0 -67L58 -33.5L58 33.5L0 67L-58 33.5L-58 -33.5Z" fill="#2bb5f7"></path></g><g transform="translate(1624 63)"><path d="M0 -78L67.5 -39L67.5 39L0 78L-67.5 39L-67.5 -39Z" fill="#2bb5f7"></path></g><g transform="translate(2825 1774)"><path d="M0 -80L69.3 -40L69.3 40L0 80L-69.3 40L-69.3 -40Z" fill="#2bb5f7"></path></g><g transform="translate(2730 706)"><path d="M0 -65L56.3 -32.5L56.3 32.5L0 65L-56.3 32.5L-56.3 -32.5Z" fill="#2bb5f7"></path></g><g transform="translate(3973 1455)"><path d="M0 -30L26 -15L26 15L0 30L-26 15L-26 -15Z" fill="#2bb5f7"></path></g><g transform="translate(1272 53)"><path d="M0 -39L33.8 -19.5L33.8 19.5L0 39L-33.8 19.5L-33.8 -19.5Z" fill="#2bb5f7"></path></g><g transform="translate(3278 13)"><path d="M0 -74L64.1 -37L64.1 37L0 74L-64.1 37L-64.1 -37Z" fill="#2bb5f7"></path></g><g transform="translate(3845 678)"><path d="M0 -69L59.8 -34.5L59.8 34.5L0 69L-59.8 34.5L-59.8 -34.5Z" fill="#2bb5f7"></path></g><g transform="translate(3534 501)"><path d="M0 -69L59.8 -34.5L59.8 34.5L0 69L-59.8 34.5L-59.8 -34.5Z" fill="#2bb5f7"></path></g><g transform="translate(63 324)"><path d="M0 -27L23.4 -13.5L23.4 13.5L0 27L-23.4 13.5L-23.4 -13.5Z" fill="#2bb5f7"></path></g><g transform="translate(558 294)"><path d="M0 -41L35.5 -20.5L35.5 20.5L0 41L-35.5 20.5L-35.5 -20.5Z" fill="#2bb5f7"></path></g><g transform="translate(2636 213)"><path d="M0 -25L21.7 -12.5L21.7 12.5L0 25L-21.7 12.5L-21.7 -12.5Z" fill="#2bb5f7"></path></g><g transform="translate(43 33)"><path d="M0 -13L11.3 -6.5L11.3 6.5L0 13L-11.3 6.5L-11.3 -6.5Z" fill="#2bb5f7"></path></g><g transform="translate(3988 796)"><path d="M0 -62L53.7 -31L53.7 31L0 62L-53.7 31L-53.7 -31Z" fill="#2bb5f7"></path></g><g transform="translate(703 1542)"><path d="M0 -42L36.4 -21L36.4 21L0 42L-36.4 21L-36.4 -21Z" fill="#2bb5f7"></path></g><g transform="translate(2623 891)"><path d="M0 -56L48.5 -28L48.5 28L0 56L-48.5 28L-48.5 -28Z" fill="#2bb5f7"></path></g><g transform="translate(3731 1755)"><path d="M0 -49L42.4 -24.5L42.4 24.5L0 49L-42.4 24.5L-42.4 -24.5Z" fill="#2bb5f7"></path></g><g transform="translate(536 1567)"><path d="M0 -35L30.3 -17.5L30.3 17.5L0 35L-30.3 17.5L-30.3 -17.5Z" fill="#2bb5f7"></path></g><g transform="translate(1842 918)"><path d="M0 -12L10.4 -6L10.4 6L0 12L-10.4 6L-10.4 -6Z" fill="#2bb5f7"></path></g><g transform="translate(2182 1762)"><path d="M0 -53L45.9 -26.5L45.9 26.5L0 53L-45.9 26.5L-45.9 -26.5Z" fill="#2bb5f7"></path></g><g transform="translate(1049 1562)"><path d="M0 -72L62.4 -36L62.4 36L0 72L-62.4 36L-62.4 -36Z" fill="#2bb5f7"></path></g><g transform="translate(3604 966)"><path d="M0 -61L52.8 -30.5L52.8 30.5L0 61L-52.8 30.5L-52.8 -30.5Z" fill="#2bb5f7"></path></g><g transform="translate(1458 26)"><path d="M0 -53L45.9 -26.5L45.9 26.5L0 53L-45.9 26.5L-45.9 -26.5Z" fill="#2bb5f7"></path></g><g transform="translate(252 509)"><path d="M0 -44L38.1 -22L38.1 22L0 44L-38.1 22L-38.1 -22Z" fill="#2bb5f7"></path></g><g transform="translate(3680 212)"><path d="M0 -18L15.6 -9L15.6 9L0 18L-15.6 9L-15.6 -9Z" fill="#2bb5f7"></path></g><g transform="translate(1929 442)"><path d="M0 -38L32.9 -19L32.9 19L0 38L-32.9 19L-32.9 -19Z" fill="#2bb5f7"></path></g><g transform="translate(2660 7)"><path d="M0 -44L38.1 -22L38.1 22L0 44L-38.1 22L-38.1 -22Z" fill="#2bb5f7"></path></g><g transform="translate(2596 1518)"><path d="M0 -25L21.7 -12.5L21.7 12.5L0 25L-21.7 12.5L-21.7 -12.5Z" fill="#2bb5f7"></path></g><g transform="translate(1157 310)"><path d="M0 -70L60.6 -35L60.6 35L0 70L-60.6 35L-60.6 -35Z" fill="#2bb5f7"></path></g><g transform="translate(2263 1298)"><path d="M0 -69L59.8 -34.5L59.8 34.5L0 69L-59.8 34.5L-59.8 -34.5Z" fill="#2bb5f7"></path></g><g transform="translate(3054 494)"><path d="M0 -42L36.4 -21L36.4 21L0 42L-36.4 21L-36.4 -21Z" fill="#2bb5f7"></path></g><g transform="translate(3978 1279)"><path d="M0 -81L70.1 -40.5L70.1 40.5L0 81L-70.1 40.5L-70.1 -40.5Z" fill="#2bb5f7"></path></g><g transform="translate(1189 621)"><path d="M0 -67L58 -33.5L58 33.5L0 67L-58 33.5L-58 -33.5Z" fill="#2bb5f7"></path></g><g transform="translate(3790 19)"><path d="M0 -28L24.2 -14L24.2 14L0 28L-24.2 14L-24.2 -14Z" fill="#2bb5f7"></path></g><g transform="translate(1234 1168)"><path d="M0 -33L28.6 -16.5L28.6 16.5L0 33L-28.6 16.5L-28.6 -16.5Z" fill="#2bb5f7"></path></g><g transform="translate(202 919)"><path d="M0 -19L16.5 -9.5L16.5 9.5L0 19L-16.5 9.5L-16.5 -9.5Z" fill="#2bb5f7"></path></g><g transform="translate(3450 150)"><path d="M0 -11L9.5 -5.5L9.5 5.5L0 11L-9.5 5.5L-9.5 -5.5Z" fill="#2bb5f7"></path></g><g transform="translate(2338 646)"><path d="M0 -70L60.6 -35L60.6 35L0 70L-60.6 35L-60.6 -35Z" fill="#2bb5f7"></path></g><g transform="translate(2771 984)"><path d="M0 -51L44.2 -25.5L44.2 25.5L0 51L-44.2 25.5L-44.2 -25.5Z" fill="#2bb5f7"></path></g><g transform="translate(3375 876)"><path d="M0 -74L64.1 -37L64.1 37L0 74L-64.1 37L-64.1 -37Z" fill="#2bb5f7"></path></g><g transform="translate(3094 192)"><path d="M0 -81L70.1 -40.5L70.1 40.5L0 81L-70.1 40.5L-70.1 -40.5Z" fill="#2bb5f7"></path></g><g transform="translate(756 1828)"><path d="M0 -48L41.6 -24L41.6 24L0 48L-41.6 24L-41.6 -24Z" fill="#2bb5f7"></path></g><g transform="translate(3075 1810)"><path d="M0 -71L61.5 -35.5L61.5 35.5L0 71L-61.5 35.5L-61.5 -35.5Z" fill="#2bb5f7"></path></g><g transform="translate(1911 1306)"><path d="M0 -32L27.7 -16L27.7 16L0 32L-27.7 16L-27.7 -16Z" fill="#2bb5f7"></path></g><g transform="translate(2644 553)"><path d="M0 -68L58.9 -34L58.9 34L0 68L-58.9 34L-58.9 -34Z" fill="#2bb5f7"></path></g><g transform="translate(2089 1578)"><path d="M0 -20L17.3 -10L17.3 10L0 20L-17.3 10L-17.3 -10Z" fill="#2bb5f7"></path></g></g></svg>