<svg id="visual" viewBox="0 0 4000 2000" width="4000" height="2000" xmlns="http://www.w3.org/2000/svg" xmlns:xlink="http://www.w3.org/1999/xlink" version="1.1"><g stroke-width="1" stroke-linejoin="bevel"><path d="M1979 1019L1787 979L1852 1137Z" fill="#226d98" stroke="#226d98"></path><path d="M1787 979L1666 998L1852 1137Z" fill="#2890c6" stroke="#2890c6"></path><path d="M1979 1019L1848 820L1787 979Z" fill="#091f2e" stroke="#091f2e"></path><path d="M1787 979L1848 820L1666 998Z" fill="#091f2e" stroke="#091f2e"></path><path d="M1852 1137L2014 1223L1979 1019Z" fill="#1e5c81" stroke="#1e5c81"></path><path d="M2014 1223L2166 1001L1979 1019Z" fill="#194c6b" stroke="#194c6b"></path><path d="M1979 1019L1962 753L1848 820Z" fill="#091f2e" stroke="#091f2e"></path><path d="M2161 777L1962 753L1979 1019Z" fill="#091f2e" stroke="#091f2e"></path><path d="M1666 998L1643 1242L1852 1137Z" fill="#00101c" stroke="#00101c"></path><path d="M1852 1137L1834 1414L2014 1223Z" fill="#2890c6" stroke="#2890c6"></path><path d="M2014 1223L2220 1185L2166 1001Z" fill="#0f2d42" stroke="#0f2d42"></path><path d="M1643 1242L1834 1414L1852 1137Z" fill="#00101c" stroke="#00101c"></path><path d="M2014 1223L2244 1412L2220 1185Z" fill="#0f2d42" stroke="#0f2d42"></path><path d="M2352 838L2161 777L2166 1001Z" fill="#267eaf" stroke="#267eaf"></path><path d="M2166 1001L2161 777L1979 1019Z" fill="#267eaf" stroke="#267eaf"></path><path d="M1602 549L1547 822L1848 820Z" fill="#00101c" stroke="#00101c"></path><path d="M1848 820L1547 822L1666 998Z" fill="#00101c" stroke="#00101c"></path><path d="M1666 998L1392 1183L1643 1242Z" fill="#143c56" stroke="#143c56"></path><path d="M2161 777L1935 609L1962 753Z" fill="#091f2e" stroke="#091f2e"></path><path d="M1962 753L1935 609L1848 820Z" fill="#194c6b" stroke="#194c6b"></path><path d="M1834 1414L2059 1463L2014 1223Z" fill="#2aa2de" stroke="#2aa2de"></path><path d="M1547 822L1417 940L1666 998Z" fill="#194c6b" stroke="#194c6b"></path><path d="M1832 467L1871 559L2028 407Z" fill="#2aa2de" stroke="#2aa2de"></path><path d="M1935 609L1871 559L1848 820Z" fill="#2890c6" stroke="#2890c6"></path><path d="M1456 625L1412 841L1547 822Z" fill="#267eaf" stroke="#267eaf"></path><path d="M1547 822L1412 841L1417 940Z" fill="#2bb5f7" stroke="#2bb5f7"></path><path d="M1168 1038L1392 1183L1417 940Z" fill="#194c6b" stroke="#194c6b"></path><path d="M1417 940L1392 1183L1666 998Z" fill="#2aa2de" stroke="#2aa2de"></path><path d="M1643 1242L1541 1442L1834 1414Z" fill="#0f2d42" stroke="#0f2d42"></path><path d="M2407 998L2352 838L2166 1001Z" fill="#226d98" stroke="#226d98"></path><path d="M2161 777L2196 543L1935 609Z" fill="#226d98" stroke="#226d98"></path><path d="M1392 1183L1541 1442L1643 1242Z" fill="#2bb5f7" stroke="#2bb5f7"></path><path d="M1834 1414L2022 1640L2059 1463Z" fill="#091f2e" stroke="#091f2e"></path><path d="M2059 1463L2244 1412L2014 1223Z" fill="#2aa2de" stroke="#2aa2de"></path><path d="M2220 1185L2407 998L2166 1001Z" fill="#091f2e" stroke="#091f2e"></path><path d="M2472 1176L2407 998L2220 1185Z" fill="#091f2e" stroke="#091f2e"></path><path d="M1871 559L1602 549L1848 820Z" fill="#2aa2de" stroke="#2aa2de"></path><path d="M2028 407L1871 559L1935 609Z" fill="#267eaf" stroke="#267eaf"></path><path d="M1871 559L1832 467L1602 549Z" fill="#00101c" stroke="#00101c"></path><path d="M1541 1442L1738 1599L1834 1414Z" fill="#2bb5f7" stroke="#2bb5f7"></path><path d="M2059 1463L2256 1542L2244 1412Z" fill="#0f2d42" stroke="#0f2d42"></path><path d="M1602 549L1456 625L1547 822Z" fill="#226d98" stroke="#226d98"></path><path d="M2361 672L2196 543L2161 777Z" fill="#2aa2de" stroke="#2aa2de"></path><path d="M2244 1412L2387 1329L2220 1185Z" fill="#194c6b" stroke="#194c6b"></path><path d="M2573 808L2361 672L2352 838Z" fill="#226d98" stroke="#226d98"></path><path d="M2352 838L2361 672L2161 777Z" fill="#0f2d42" stroke="#0f2d42"></path><path d="M1392 1183L1416 1434L1541 1442Z" fill="#1e5c81" stroke="#1e5c81"></path><path d="M1541 1442L1546 1547L1738 1599Z" fill="#226d98" stroke="#226d98"></path><path d="M1417 1553L1546 1547L1541 1442Z" fill="#267eaf" stroke="#267eaf"></path><path d="M2387 1329L2472 1176L2220 1185Z" fill="#00101c" stroke="#00101c"></path><path d="M2407 998L2573 808L2352 838Z" fill="#2bb5f7" stroke="#2bb5f7"></path><path d="M1738 1599L2022 1640L1834 1414Z" fill="#2aa2de" stroke="#2aa2de"></path><path d="M2244 1412L2454 1527L2387 1329Z" fill="#2aa2de" stroke="#2aa2de"></path><path d="M2022 1640L2256 1542L2059 1463Z" fill="#2890c6" stroke="#2890c6"></path><path d="M2234 400L2028 407L2196 543Z" fill="#267eaf" stroke="#267eaf"></path><path d="M2196 543L2028 407L1935 609Z" fill="#091f2e" stroke="#091f2e"></path><path d="M1832 467L1620 405L1602 549Z" fill="#226d98" stroke="#226d98"></path><path d="M1602 549L1373 365L1456 625Z" fill="#2bb5f7" stroke="#2bb5f7"></path><path d="M1776 232L1620 405L1832 467Z" fill="#2890c6" stroke="#2890c6"></path><path d="M1416 1434L1417 1553L1541 1442Z" fill="#143c56" stroke="#143c56"></path><path d="M1535 1795L1767 1811L1738 1599Z" fill="#2bb5f7" stroke="#2bb5f7"></path><path d="M1738 1599L1994 1757L2022 1640Z" fill="#00101c" stroke="#00101c"></path><path d="M1231 1548L1417 1553L1416 1434Z" fill="#091f2e" stroke="#091f2e"></path><path d="M1186 765L1168 1038L1417 940Z" fill="#2890c6" stroke="#2890c6"></path><path d="M1392 1183L1243 1380L1416 1434Z" fill="#2bb5f7" stroke="#2bb5f7"></path><path d="M1186 765L1417 940L1412 841Z" fill="#0f2d42" stroke="#0f2d42"></path><path d="M1136 1203L1243 1380L1392 1183Z" fill="#2aa2de" stroke="#2aa2de"></path><path d="M2387 1329L2584 1183L2472 1176Z" fill="#2aa2de" stroke="#2aa2de"></path><path d="M2472 1176L2612 1067L2407 998Z" fill="#194c6b" stroke="#194c6b"></path><path d="M2594 1432L2584 1183L2387 1329Z" fill="#0f2d42" stroke="#0f2d42"></path><path d="M2470 417L2234 400L2196 543Z" fill="#00101c" stroke="#00101c"></path><path d="M1954 208L1776 232L1832 467Z" fill="#1e5c81" stroke="#1e5c81"></path><path d="M1767 1811L1994 1757L1738 1599Z" fill="#226d98" stroke="#226d98"></path><path d="M2022 1640L2187 1765L2256 1542Z" fill="#143c56" stroke="#143c56"></path><path d="M2612 1067L2573 808L2407 998Z" fill="#091f2e" stroke="#091f2e"></path><path d="M2361 672L2470 417L2196 543Z" fill="#2aa2de" stroke="#2aa2de"></path><path d="M2584 1183L2612 1067L2472 1176Z" fill="#0f2d42" stroke="#0f2d42"></path><path d="M1273 542L1186 765L1456 625Z" fill="#2890c6" stroke="#2890c6"></path><path d="M1456 625L1186 765L1412 841Z" fill="#194c6b" stroke="#194c6b"></path><path d="M1020 1259L1136 1203L971 1037Z" fill="#267eaf" stroke="#267eaf"></path><path d="M1168 1038L1136 1203L1392 1183Z" fill="#091f2e" stroke="#091f2e"></path><path d="M2422 1762L2454 1527L2256 1542Z" fill="#2bb5f7" stroke="#2bb5f7"></path><path d="M2256 1542L2454 1527L2244 1412Z" fill="#267eaf" stroke="#267eaf"></path><path d="M1373 365L1273 542L1456 625Z" fill="#00101c" stroke="#00101c"></path><path d="M1535 1795L1738 1599L1546 1547Z" fill="#2890c6" stroke="#2890c6"></path><path d="M2033 2000L2187 1765L1994 1757Z" fill="#2bb5f7" stroke="#2bb5f7"></path><path d="M1994 1757L2187 1765L2022 1640Z" fill="#2890c6" stroke="#2890c6"></path><path d="M1954 208L1832 467L2028 407Z" fill="#00101c" stroke="#00101c"></path><path d="M1620 405L1373 365L1602 549Z" fill="#194c6b" stroke="#194c6b"></path><path d="M2604 1564L2594 1432L2454 1527Z" fill="#194c6b" stroke="#194c6b"></path><path d="M2454 1527L2594 1432L2387 1329Z" fill="#00101c" stroke="#00101c"></path><path d="M2584 1183L2764 1206L2612 1067Z" fill="#091f2e" stroke="#091f2e"></path><path d="M978 1341L1231 1548L1243 1380Z" fill="#2bb5f7" stroke="#2bb5f7"></path><path d="M1243 1380L1231 1548L1416 1434Z" fill="#1e5c81" stroke="#1e5c81"></path><path d="M1417 1553L1535 1795L1546 1547Z" fill="#0f2d42" stroke="#0f2d42"></path><path d="M2192 139L1954 208L2028 407Z" fill="#143c56" stroke="#143c56"></path><path d="M1362 1834L1535 1795L1417 1553Z" fill="#00101c" stroke="#00101c"></path><path d="M1439 272L1373 365L1620 405Z" fill="#091f2e" stroke="#091f2e"></path><path d="M2589 541L2470 417L2361 672Z" fill="#0f2d42" stroke="#0f2d42"></path><path d="M2234 400L2192 139L2028 407Z" fill="#194c6b" stroke="#194c6b"></path><path d="M2729 586L2589 541L2573 808Z" fill="#2aa2de" stroke="#2aa2de"></path><path d="M2573 808L2589 541L2361 672Z" fill="#2890c6" stroke="#2890c6"></path><path d="M1068 578L1186 765L1273 542Z" fill="#194c6b" stroke="#194c6b"></path><path d="M1068 578L1040 794L1186 765Z" fill="#2890c6" stroke="#2890c6"></path><path d="M1186 765L1040 794L1168 1038Z" fill="#1e5c81" stroke="#1e5c81"></path><path d="M1566 132L1439 272L1620 405Z" fill="#091f2e" stroke="#091f2e"></path><path d="M1373 365L1203 400L1273 542Z" fill="#143c56" stroke="#143c56"></path><path d="M1566 132L1620 405L1776 232Z" fill="#194c6b" stroke="#194c6b"></path><path d="M971 1037L1136 1203L1168 1038Z" fill="#143c56" stroke="#143c56"></path><path d="M1136 1203L1020 1259L1243 1380Z" fill="#226d98" stroke="#226d98"></path><path d="M2606 1735L2604 1564L2454 1527Z" fill="#226d98" stroke="#226d98"></path><path d="M2594 1432L2764 1206L2584 1183Z" fill="#143c56" stroke="#143c56"></path><path d="M1040 794L971 1037L1168 1038Z" fill="#0f2d42" stroke="#0f2d42"></path><path d="M2873 1376L2764 1206L2594 1432Z" fill="#0f2d42" stroke="#0f2d42"></path><path d="M2612 1067L2782 848L2573 808Z" fill="#2890c6" stroke="#2890c6"></path><path d="M2250 2000L2422 1762L2187 1765Z" fill="#267eaf" stroke="#267eaf"></path><path d="M2187 1765L2422 1762L2256 1542Z" fill="#1e5c81" stroke="#1e5c81"></path><path d="M1214 248L1203 400L1373 365Z" fill="#194c6b" stroke="#194c6b"></path><path d="M2858 1073L2782 848L2612 1067Z" fill="#226d98" stroke="#226d98"></path><path d="M1203 400L1068 578L1273 542Z" fill="#2890c6" stroke="#2890c6"></path><path d="M756 794L805 1052L971 1037Z" fill="#091f2e" stroke="#091f2e"></path><path d="M2729 586L2595 435L2589 541Z" fill="#2aa2de" stroke="#2aa2de"></path><path d="M2589 541L2595 435L2470 417Z" fill="#267eaf" stroke="#267eaf"></path><path d="M2451 199L2192 139L2234 400Z" fill="#2bb5f7" stroke="#2bb5f7"></path><path d="M1020 1259L978 1341L1243 1380Z" fill="#00101c" stroke="#00101c"></path><path d="M808 1204L978 1341L1020 1259Z" fill="#0f2d42" stroke="#0f2d42"></path><path d="M1208 1749L1362 1834L1417 1553Z" fill="#2bb5f7" stroke="#2bb5f7"></path><path d="M1581 2000L1848 2000L1767 1811Z" fill="#2bb5f7" stroke="#2bb5f7"></path><path d="M1208 1749L1417 1553L1231 1548Z" fill="#267eaf" stroke="#267eaf"></path><path d="M2451 199L2234 400L2470 417Z" fill="#194c6b" stroke="#194c6b"></path><path d="M1790 0L1566 132L1776 232Z" fill="#226d98" stroke="#226d98"></path><path d="M1790 0L1776 232L1954 208Z" fill="#091f2e" stroke="#091f2e"></path><path d="M1439 272L1214 248L1373 365Z" fill="#1e5c81" stroke="#1e5c81"></path><path d="M2782 848L2729 586L2573 808Z" fill="#226d98" stroke="#226d98"></path><path d="M1581 2000L1767 1811L1535 1795Z" fill="#0f2d42" stroke="#0f2d42"></path><path d="M1767 1811L1848 2000L1994 1757Z" fill="#2bb5f7" stroke="#2bb5f7"></path><path d="M994 1650L1208 1749L1231 1548Z" fill="#00101c" stroke="#00101c"></path><path d="M1848 2000L2033 2000L1994 1757Z" fill="#194c6b" stroke="#194c6b"></path><path d="M2934 1133L2858 1073L2764 1206Z" fill="#143c56" stroke="#143c56"></path><path d="M2764 1206L2858 1073L2612 1067Z" fill="#00101c" stroke="#00101c"></path><path d="M3028 536L2809 419L2729 586Z" fill="#091f2e" stroke="#091f2e"></path><path d="M1402 2000L1581 2000L1535 1795Z" fill="#1e5c81" stroke="#1e5c81"></path><path d="M1402 2000L1535 1795L1362 1834Z" fill="#226d98" stroke="#226d98"></path><path d="M2422 1762L2606 1735L2454 1527Z" fill="#267eaf" stroke="#267eaf"></path><path d="M2788 1566L2873 1376L2594 1432Z" fill="#226d98" stroke="#226d98"></path><path d="M2613 2000L2606 1735L2422 1762Z" fill="#0f2d42" stroke="#0f2d42"></path><path d="M2556 159L2451 199L2470 417Z" fill="#267eaf" stroke="#267eaf"></path><path d="M2556 159L2470 417L2595 435Z" fill="#267eaf" stroke="#267eaf"></path><path d="M1379 0L1214 248L1439 272Z" fill="#2bb5f7" stroke="#2bb5f7"></path><path d="M1203 400L974 376L1068 578Z" fill="#267eaf" stroke="#267eaf"></path><path d="M2033 2000L2250 2000L2187 1765Z" fill="#1e5c81" stroke="#1e5c81"></path><path d="M1985 0L1954 208L2192 139Z" fill="#194c6b" stroke="#194c6b"></path><path d="M1985 0L1790 0L1954 208Z" fill="#0f2d42" stroke="#0f2d42"></path><path d="M1566 132L1379 0L1439 272Z" fill="#2aa2de" stroke="#2aa2de"></path><path d="M2244 0L1985 0L2192 139Z" fill="#194c6b" stroke="#194c6b"></path><path d="M2788 1566L2594 1432L2604 1564Z" fill="#226d98" stroke="#226d98"></path><path d="M2606 1735L2788 1566L2604 1564Z" fill="#2bb5f7" stroke="#2bb5f7"></path><path d="M2873 1376L2934 1133L2764 1206Z" fill="#091f2e" stroke="#091f2e"></path><path d="M2858 1073L2997 1036L2782 848Z" fill="#1e5c81" stroke="#1e5c81"></path><path d="M756 794L971 1037L1040 794Z" fill="#1e5c81" stroke="#1e5c81"></path><path d="M971 1037L808 1204L1020 1259Z" fill="#0f2d42" stroke="#0f2d42"></path><path d="M978 1341L994 1650L1231 1548Z" fill="#1e5c81" stroke="#1e5c81"></path><path d="M860 529L1040 794L1068 578Z" fill="#226d98" stroke="#226d98"></path><path d="M810 1585L994 1650L978 1341Z" fill="#00101c" stroke="#00101c"></path><path d="M1195 2000L1402 2000L1362 1834Z" fill="#194c6b" stroke="#194c6b"></path><path d="M1195 2000L1362 1834L1208 1749Z" fill="#267eaf" stroke="#267eaf"></path><path d="M805 1052L808 1204L971 1037Z" fill="#2aa2de" stroke="#2aa2de"></path><path d="M1790 0L1532 0L1566 132Z" fill="#226d98" stroke="#226d98"></path><path d="M2382 0L2244 0L2192 139Z" fill="#267eaf" stroke="#267eaf"></path><path d="M2809 419L2556 159L2595 435Z" fill="#2bb5f7" stroke="#2bb5f7"></path><path d="M2451 199L2382 0L2192 139Z" fill="#226d98" stroke="#226d98"></path><path d="M2250 2000L2436 2000L2422 1762Z" fill="#091f2e" stroke="#091f2e"></path><path d="M2606 1735L2797 1734L2788 1566Z" fill="#143c56" stroke="#143c56"></path><path d="M1023 156L974 376L1214 248Z" fill="#2aa2de" stroke="#2aa2de"></path><path d="M1214 248L974 376L1203 400Z" fill="#091f2e" stroke="#091f2e"></path><path d="M3042 781L2729 586L2782 848Z" fill="#2aa2de" stroke="#2aa2de"></path><path d="M2729 586L2809 419L2595 435Z" fill="#00101c" stroke="#00101c"></path><path d="M3213 1025L2997 1036L3252 1234Z" fill="#267eaf" stroke="#267eaf"></path><path d="M2934 1133L2997 1036L2858 1073Z" fill="#226d98" stroke="#226d98"></path><path d="M2788 1566L2945 1400L2873 1376Z" fill="#2890c6" stroke="#2890c6"></path><path d="M2873 1376L2945 1400L2934 1133Z" fill="#2aa2de" stroke="#2aa2de"></path><path d="M2993 1588L2945 1400L2788 1566Z" fill="#2890c6" stroke="#2890c6"></path><path d="M974 376L860 529L1068 578Z" fill="#2bb5f7" stroke="#2bb5f7"></path><path d="M860 529L756 794L1040 794Z" fill="#194c6b" stroke="#194c6b"></path><path d="M539 1242L755 1445L808 1204Z" fill="#2890c6" stroke="#2890c6"></path><path d="M1532 0L1379 0L1566 132Z" fill="#2bb5f7" stroke="#2bb5f7"></path><path d="M2556 159L2382 0L2451 199Z" fill="#00101c" stroke="#00101c"></path><path d="M2733 2000L2797 1734L2606 1735Z" fill="#00101c" stroke="#00101c"></path><path d="M839 1807L993 1808L994 1650Z" fill="#2bb5f7" stroke="#2bb5f7"></path><path d="M994 1650L993 1808L1208 1749Z" fill="#2bb5f7" stroke="#2bb5f7"></path><path d="M993 1808L1195 2000L1208 1749Z" fill="#0f2d42" stroke="#0f2d42"></path><path d="M808 1204L755 1445L978 1341Z" fill="#2bb5f7" stroke="#2bb5f7"></path><path d="M637 1043L808 1204L805 1052Z" fill="#194c6b" stroke="#194c6b"></path><path d="M3213 1025L3042 781L2997 1036Z" fill="#00101c" stroke="#00101c"></path><path d="M2997 1036L3042 781L2782 848Z" fill="#2890c6" stroke="#2890c6"></path><path d="M755 1445L810 1585L978 1341Z" fill="#091f2e" stroke="#091f2e"></path><path d="M2436 2000L2613 2000L2422 1762Z" fill="#0f2d42" stroke="#0f2d42"></path><path d="M1204 0L1023 156L1214 248Z" fill="#0f2d42" stroke="#0f2d42"></path><path d="M974 376L770 446L860 529Z" fill="#226d98" stroke="#226d98"></path><path d="M1379 0L1204 0L1214 248Z" fill="#2890c6" stroke="#2890c6"></path><path d="M643 749L637 1043L756 794Z" fill="#2bb5f7" stroke="#2bb5f7"></path><path d="M756 794L637 1043L805 1052Z" fill="#267eaf" stroke="#267eaf"></path><path d="M2797 1734L2993 1588L2788 1566Z" fill="#2bb5f7" stroke="#2bb5f7"></path><path d="M3252 1234L2997 1036L2934 1133Z" fill="#091f2e" stroke="#091f2e"></path><path d="M3046 1833L2993 1588L2797 1734Z" fill="#143c56" stroke="#143c56"></path><path d="M863 260L770 446L974 376Z" fill="#267eaf" stroke="#267eaf"></path><path d="M860 529L643 749L756 794Z" fill="#00101c" stroke="#00101c"></path><path d="M3042 781L3028 536L2729 586Z" fill="#091f2e" stroke="#091f2e"></path><path d="M2809 419L2865 149L2556 159Z" fill="#267eaf" stroke="#267eaf"></path><path d="M2556 159L2628 0L2382 0Z" fill="#2890c6" stroke="#2890c6"></path><path d="M549 609L643 749L860 529Z" fill="#226d98" stroke="#226d98"></path><path d="M3028 536L2956 359L2809 419Z" fill="#1e5c81" stroke="#1e5c81"></path><path d="M1023 156L863 260L974 376Z" fill="#2aa2de" stroke="#2aa2de"></path><path d="M970 0L863 260L1023 156Z" fill="#143c56" stroke="#143c56"></path><path d="M2865 149L2628 0L2556 159Z" fill="#2bb5f7" stroke="#2bb5f7"></path><path d="M2613 2000L2733 2000L2606 1735Z" fill="#143c56" stroke="#143c56"></path><path d="M592 1593L810 1585L755 1445Z" fill="#194c6b" stroke="#194c6b"></path><path d="M598 1806L839 1807L810 1585Z" fill="#2aa2de" stroke="#2aa2de"></path><path d="M810 1585L839 1807L994 1650Z" fill="#194c6b" stroke="#194c6b"></path><path d="M993 1808L1014 2000L1195 2000Z" fill="#2aa2de" stroke="#2aa2de"></path><path d="M852 2000L1014 2000L993 1808Z" fill="#2bb5f7" stroke="#2bb5f7"></path><path d="M2956 359L2865 149L2809 419Z" fill="#143c56" stroke="#143c56"></path><path d="M3252 1234L2934 1133L2945 1400Z" fill="#267eaf" stroke="#267eaf"></path><path d="M3042 781L3192 653L3028 536Z" fill="#091f2e" stroke="#091f2e"></path><path d="M407 1193L539 1242L637 1043Z" fill="#2aa2de" stroke="#2aa2de"></path><path d="M637 1043L539 1242L808 1204Z" fill="#1e5c81" stroke="#1e5c81"></path><path d="M3213 1025L3217 810L3042 781Z" fill="#00101c" stroke="#00101c"></path><path d="M3028 536L3177 440L2956 359Z" fill="#194c6b" stroke="#194c6b"></path><path d="M2956 359L3068 242L2865 149Z" fill="#1e5c81" stroke="#1e5c81"></path><path d="M3217 810L3192 653L3042 781Z" fill="#2aa2de" stroke="#2aa2de"></path><path d="M1204 0L970 0L1023 156Z" fill="#091f2e" stroke="#091f2e"></path><path d="M561 329L549 609L770 446Z" fill="#0f2d42" stroke="#0f2d42"></path><path d="M539 1242L533 1361L755 1445Z" fill="#2890c6" stroke="#2890c6"></path><path d="M3265 1334L2945 1400L2993 1588Z" fill="#194c6b" stroke="#194c6b"></path><path d="M3265 1334L3252 1234L2945 1400Z" fill="#0f2d42" stroke="#0f2d42"></path><path d="M3213 1025L3392 842L3217 810Z" fill="#143c56" stroke="#143c56"></path><path d="M770 446L549 609L860 529Z" fill="#2890c6" stroke="#2890c6"></path><path d="M643 749L409 943L637 1043Z" fill="#2aa2de" stroke="#2aa2de"></path><path d="M539 1242L407 1193L533 1361Z" fill="#1e5c81" stroke="#1e5c81"></path><path d="M561 329L770 446L863 260Z" fill="#2890c6" stroke="#2890c6"></path><path d="M533 1361L592 1593L755 1445Z" fill="#2890c6" stroke="#2890c6"></path><path d="M839 1807L852 2000L993 1808Z" fill="#2aa2de" stroke="#2aa2de"></path><path d="M644 2000L852 2000L839 1807Z" fill="#2aa2de" stroke="#2aa2de"></path><path d="M2733 2000L3046 1833L2797 1734Z" fill="#194c6b" stroke="#194c6b"></path><path d="M3268 1599L3265 1334L2993 1588Z" fill="#143c56" stroke="#143c56"></path><path d="M3252 1234L3383 1162L3213 1025Z" fill="#267eaf" stroke="#267eaf"></path><path d="M3382 531L3177 440L3192 653Z" fill="#00101c" stroke="#00101c"></path><path d="M3192 653L3177 440L3028 536Z" fill="#2bb5f7" stroke="#2bb5f7"></path><path d="M3177 440L3068 242L2956 359Z" fill="#0f2d42" stroke="#0f2d42"></path><path d="M2865 149L2866 0L2628 0Z" fill="#2890c6" stroke="#2890c6"></path><path d="M2947 0L2866 0L2865 149Z" fill="#091f2e" stroke="#091f2e"></path><path d="M374 773L409 943L643 749Z" fill="#0f2d42" stroke="#0f2d42"></path><path d="M533 1361L382 1461L592 1593Z" fill="#194c6b" stroke="#194c6b"></path><path d="M409 943L407 1193L637 1043Z" fill="#1e5c81" stroke="#1e5c81"></path><path d="M3175 145L2947 0L3068 242Z" fill="#0f2d42" stroke="#0f2d42"></path><path d="M3068 242L2947 0L2865 149Z" fill="#091f2e" stroke="#091f2e"></path><path d="M551 143L561 329L863 260Z" fill="#1e5c81" stroke="#1e5c81"></path><path d="M549 609L374 773L643 749Z" fill="#0f2d42" stroke="#0f2d42"></path><path d="M431 1729L598 1806L592 1593Z" fill="#2aa2de" stroke="#2aa2de"></path><path d="M592 1593L598 1806L810 1585Z" fill="#2bb5f7" stroke="#2bb5f7"></path><path d="M3184 1807L3268 1599L2993 1588Z" fill="#00101c" stroke="#00101c"></path><path d="M970 0L773 0L863 260Z" fill="#2aa2de" stroke="#2aa2de"></path><path d="M3346 1432L3383 1162L3265 1334Z" fill="#267eaf" stroke="#267eaf"></path><path d="M3265 1334L3383 1162L3252 1234Z" fill="#0f2d42" stroke="#0f2d42"></path><path d="M3217 810L3392 842L3192 653Z" fill="#2bb5f7" stroke="#2bb5f7"></path><path d="M3046 1833L3184 1807L2993 1588Z" fill="#2890c6" stroke="#2890c6"></path><path d="M2733 2000L3043 2000L3046 1833Z" fill="#0f2d42" stroke="#0f2d42"></path><path d="M3164 2000L3184 1807L3046 1833Z" fill="#2890c6" stroke="#2890c6"></path><path d="M3268 1599L3346 1432L3265 1334Z" fill="#2bb5f7" stroke="#2bb5f7"></path><path d="M3407 1561L3346 1432L3268 1599Z" fill="#194c6b" stroke="#194c6b"></path><path d="M397 619L374 773L549 609Z" fill="#2aa2de" stroke="#2aa2de"></path><path d="M143 1052L194 1270L407 1193Z" fill="#194c6b" stroke="#194c6b"></path><path d="M3419 1002L3392 842L3213 1025Z" fill="#194c6b" stroke="#194c6b"></path><path d="M3177 440L3175 145L3068 242Z" fill="#143c56" stroke="#143c56"></path><path d="M373 450L397 619L549 609Z" fill="#226d98" stroke="#226d98"></path><path d="M3383 1162L3419 1002L3213 1025Z" fill="#226d98" stroke="#226d98"></path><path d="M3577 1257L3419 1002L3383 1162Z" fill="#143c56" stroke="#143c56"></path><path d="M194 1270L382 1461L407 1193Z" fill="#00101c" stroke="#00101c"></path><path d="M407 1193L382 1461L533 1361Z" fill="#1e5c81" stroke="#1e5c81"></path><path d="M353 2000L644 2000L598 1806Z" fill="#0f2d42" stroke="#0f2d42"></path><path d="M598 1806L644 2000L839 1807Z" fill="#143c56" stroke="#143c56"></path><path d="M3384 258L3175 145L3177 440Z" fill="#00101c" stroke="#00101c"></path><path d="M382 1461L392 1579L592 1593Z" fill="#2aa2de" stroke="#2aa2de"></path><path d="M3392 842L3382 531L3192 653Z" fill="#194c6b" stroke="#194c6b"></path><path d="M3632 773L3382 531L3392 842Z" fill="#1e5c81" stroke="#1e5c81"></path><path d="M773 0L551 143L863 260Z" fill="#2890c6" stroke="#2890c6"></path><path d="M561 329L373 450L549 609Z" fill="#2aa2de" stroke="#2aa2de"></path><path d="M392 1579L431 1729L592 1593Z" fill="#143c56" stroke="#143c56"></path><path d="M3043 2000L3164 2000L3046 1833Z" fill="#2bb5f7" stroke="#2bb5f7"></path><path d="M3411 1821L3407 1561L3268 1599Z" fill="#2aa2de" stroke="#2aa2de"></path><path d="M341 262L373 450L561 329Z" fill="#1e5c81" stroke="#1e5c81"></path><path d="M397 619L261 658L374 773Z" fill="#091f2e" stroke="#091f2e"></path><path d="M3411 1821L3268 1599L3184 1807Z" fill="#091f2e" stroke="#091f2e"></path><path d="M3346 1432L3577 1257L3383 1162Z" fill="#143c56" stroke="#143c56"></path><path d="M3384 258L3374 391L3574 204Z" fill="#194c6b" stroke="#194c6b"></path><path d="M3382 531L3374 391L3177 440Z" fill="#143c56" stroke="#143c56"></path><path d="M3466 0L3170 0L3175 145Z" fill="#267eaf" stroke="#267eaf"></path><path d="M3175 145L3170 0L2947 0Z" fill="#1e5c81" stroke="#1e5c81"></path><path d="M373 450L261 658L397 619Z" fill="#2aa2de" stroke="#2aa2de"></path><path d="M152 798L143 1052L409 943Z" fill="#226d98" stroke="#226d98"></path><path d="M382 1461L174 1609L392 1579Z" fill="#2890c6" stroke="#2890c6"></path><path d="M551 143L341 262L561 329Z" fill="#226d98" stroke="#226d98"></path><path d="M373 450L199 349L261 658Z" fill="#2aa2de" stroke="#2aa2de"></path><path d="M773 0L570 0L551 143Z" fill="#00101c" stroke="#00101c"></path><path d="M3646 423L3374 391L3382 531Z" fill="#1e5c81" stroke="#1e5c81"></path><path d="M3374 391L3384 258L3177 440Z" fill="#091f2e" stroke="#091f2e"></path><path d="M143 1052L407 1193L409 943Z" fill="#143c56" stroke="#143c56"></path><path d="M392 1579L174 1609L431 1729Z" fill="#194c6b" stroke="#194c6b"></path><path d="M3583 1388L3346 1432L3407 1561Z" fill="#091f2e" stroke="#091f2e"></path><path d="M3583 1388L3577 1257L3346 1432Z" fill="#0f2d42" stroke="#0f2d42"></path><path d="M3419 1002L3614 930L3392 842Z" fill="#194c6b" stroke="#194c6b"></path><path d="M469 0L341 262L551 143Z" fill="#0f2d42" stroke="#0f2d42"></path><path d="M3367 2000L3411 1821L3184 1807Z" fill="#0f2d42" stroke="#0f2d42"></path><path d="M152 798L409 943L374 773Z" fill="#2aa2de" stroke="#2aa2de"></path><path d="M152 798L374 773L261 658Z" fill="#226d98" stroke="#226d98"></path><path d="M0 800L152 798L0 632Z" fill="#00101c" stroke="#00101c"></path><path d="M3577 1257L3614 930L3419 1002Z" fill="#267eaf" stroke="#267eaf"></path><path d="M3560 1656L3583 1388L3407 1561Z" fill="#226d98" stroke="#226d98"></path><path d="M3843 1215L3823 939L3614 930Z" fill="#00101c" stroke="#00101c"></path><path d="M570 0L469 0L551 143Z" fill="#267eaf" stroke="#267eaf"></path><path d="M0 1333L139 1401L194 1270Z" fill="#267eaf" stroke="#267eaf"></path><path d="M194 1270L139 1401L382 1461Z" fill="#00101c" stroke="#00101c"></path><path d="M431 1729L353 2000L598 1806Z" fill="#226d98" stroke="#226d98"></path><path d="M3823 939L3632 773L3614 930Z" fill="#2aa2de" stroke="#2aa2de"></path><path d="M3614 930L3632 773L3392 842Z" fill="#091f2e" stroke="#091f2e"></path><path d="M3164 2000L3367 2000L3184 1807Z" fill="#00101c" stroke="#00101c"></path><path d="M3411 1821L3560 1656L3407 1561Z" fill="#00101c" stroke="#00101c"></path><path d="M3568 1832L3560 1656L3411 1821Z" fill="#1e5c81" stroke="#1e5c81"></path><path d="M139 1401L174 1609L382 1461Z" fill="#2890c6" stroke="#2890c6"></path><path d="M212 1822L353 2000L431 1729Z" fill="#00101c" stroke="#00101c"></path><path d="M205 264L199 349L341 262Z" fill="#091f2e" stroke="#091f2e"></path><path d="M341 262L199 349L373 450Z" fill="#194c6b" stroke="#194c6b"></path><path d="M3632 773L3638 547L3382 531Z" fill="#0f2d42" stroke="#0f2d42"></path><path d="M3384 258L3466 0L3175 145Z" fill="#2aa2de" stroke="#2aa2de"></path><path d="M225 0L205 264L341 262Z" fill="#143c56" stroke="#143c56"></path><path d="M0 800L0 1017L152 798Z" fill="#267eaf" stroke="#267eaf"></path><path d="M174 1609L212 1822L431 1729Z" fill="#226d98" stroke="#226d98"></path><path d="M3367 2000L3568 1832L3411 1821Z" fill="#267eaf" stroke="#267eaf"></path><path d="M3813 1405L3577 1257L3583 1388Z" fill="#226d98" stroke="#226d98"></path><path d="M3843 1215L3614 930L3577 1257Z" fill="#2aa2de" stroke="#2aa2de"></path><path d="M3854 593L3646 423L3638 547Z" fill="#226d98" stroke="#226d98"></path><path d="M3638 547L3646 423L3382 531Z" fill="#226d98" stroke="#226d98"></path><path d="M152 798L261 658L0 632Z" fill="#226d98" stroke="#226d98"></path><path d="M152 798L0 1017L143 1052Z" fill="#194c6b" stroke="#194c6b"></path><path d="M143 1052L0 1137L194 1270Z" fill="#091f2e" stroke="#091f2e"></path><path d="M139 1401L0 1646L174 1609Z" fill="#091f2e" stroke="#091f2e"></path><path d="M174 1609L0 1745L212 1822Z" fill="#1e5c81" stroke="#1e5c81"></path><path d="M0 1017L0 1137L143 1052Z" fill="#194c6b" stroke="#194c6b"></path><path d="M0 632L261 658L199 349Z" fill="#194c6b" stroke="#194c6b"></path><path d="M3646 423L3574 204L3374 391Z" fill="#226d98" stroke="#226d98"></path><path d="M3574 204L3466 0L3384 258Z" fill="#00101c" stroke="#00101c"></path><path d="M0 1137L0 1333L194 1270Z" fill="#00101c" stroke="#00101c"></path><path d="M0 340L0 632L199 349Z" fill="#2aa2de" stroke="#2aa2de"></path><path d="M469 0L225 0L341 262Z" fill="#091f2e" stroke="#091f2e"></path><path d="M205 264L0 340L199 349Z" fill="#267eaf" stroke="#267eaf"></path><path d="M3813 1405L3583 1388L3845 1583Z" fill="#2890c6" stroke="#2890c6"></path><path d="M3632 773L3854 593L3638 547Z" fill="#2bb5f7" stroke="#2bb5f7"></path><path d="M3799 0L3536 0L3574 204Z" fill="#143c56" stroke="#143c56"></path><path d="M3807 364L3574 204L3646 423Z" fill="#267eaf" stroke="#267eaf"></path><path d="M3574 204L3536 0L3466 0Z" fill="#2890c6" stroke="#2890c6"></path><path d="M3845 1583L3583 1388L3560 1656Z" fill="#2bb5f7" stroke="#2bb5f7"></path><path d="M0 1333L0 1646L139 1401Z" fill="#00101c" stroke="#00101c"></path><path d="M212 1822L152 2000L353 2000Z" fill="#2890c6" stroke="#2890c6"></path><path d="M0 2000L152 2000L212 1822Z" fill="#2aa2de" stroke="#2aa2de"></path><path d="M3813 1405L3843 1215L3577 1257Z" fill="#267eaf" stroke="#267eaf"></path><path d="M4000 798L3853 822L3823 939Z" fill="#267eaf" stroke="#267eaf"></path><path d="M3823 939L3853 822L3632 773Z" fill="#194c6b" stroke="#194c6b"></path><path d="M0 218L0 340L205 264Z" fill="#143c56" stroke="#143c56"></path><path d="M3367 2000L3631 2000L3568 1832Z" fill="#143c56" stroke="#143c56"></path><path d="M3824 1867L3845 1583L3560 1656Z" fill="#194c6b" stroke="#194c6b"></path><path d="M0 1646L0 1745L174 1609Z" fill="#2bb5f7" stroke="#2bb5f7"></path><path d="M3853 822L3854 593L3632 773Z" fill="#2aa2de" stroke="#2aa2de"></path><path d="M4000 1195L4000 1033L3843 1215Z" fill="#2bb5f7" stroke="#2bb5f7"></path><path d="M3843 1215L4000 1033L3823 939Z" fill="#1e5c81" stroke="#1e5c81"></path><path d="M3824 1867L3560 1656L3568 1832Z" fill="#1e5c81" stroke="#1e5c81"></path><path d="M3854 593L3807 364L3646 423Z" fill="#2aa2de" stroke="#2aa2de"></path><path d="M225 0L0 218L205 264Z" fill="#2bb5f7" stroke="#2bb5f7"></path><path d="M3631 2000L3751 2000L3568 1832Z" fill="#226d98" stroke="#226d98"></path><path d="M0 1745L0 2000L212 1822Z" fill="#143c56" stroke="#143c56"></path><path d="M3751 2000L3824 1867L3568 1832Z" fill="#0f2d42" stroke="#0f2d42"></path><path d="M3853 822L4000 621L3854 593Z" fill="#1e5c81" stroke="#1e5c81"></path><path d="M4000 175L3852 169L3807 364Z" fill="#091f2e" stroke="#091f2e"></path><path d="M4000 1195L3843 1215L4000 1364Z" fill="#2890c6" stroke="#2890c6"></path><path d="M3843 1215L3813 1405L4000 1364Z" fill="#00101c" stroke="#00101c"></path><path d="M4000 1364L3813 1405L3845 1583Z" fill="#226d98" stroke="#226d98"></path><path d="M4000 1033L4000 798L3823 939Z" fill="#226d98" stroke="#226d98"></path><path d="M225 0L0 0L0 218Z" fill="#2bb5f7" stroke="#2bb5f7"></path><path d="M4000 1669L4000 1364L3845 1583Z" fill="#226d98" stroke="#226d98"></path><path d="M4000 442L3807 364L3854 593Z" fill="#194c6b" stroke="#194c6b"></path><path d="M3807 364L3852 169L3574 204Z" fill="#2bb5f7" stroke="#2bb5f7"></path><path d="M4000 798L4000 621L3853 822Z" fill="#2aa2de" stroke="#2aa2de"></path><path d="M4000 0L3799 0L3852 169Z" fill="#091f2e" stroke="#091f2e"></path><path d="M3852 169L3799 0L3574 204Z" fill="#2aa2de" stroke="#2aa2de"></path><path d="M4000 621L4000 442L3854 593Z" fill="#1e5c81" stroke="#1e5c81"></path><path d="M4000 1753L4000 1669L3845 1583Z" fill="#00101c" stroke="#00101c"></path><path d="M4000 1753L3845 1583L3824 1867Z" fill="#226d98" stroke="#226d98"></path><path d="M4000 2000L4000 1753L3824 1867Z" fill="#2aa2de" stroke="#2aa2de"></path><path d="M4000 442L4000 175L3807 364Z" fill="#226d98" stroke="#226d98"></path><path d="M3751 2000L4000 2000L3824 1867Z" fill="#226d98" stroke="#226d98"></path><path d="M4000 175L4000 0L3852 169Z" fill="#267eaf" stroke="#267eaf"></path></g></svg>