<svg id="visual" viewBox="0 0 4000 2000" width="4000" height="2000" xmlns="http://www.w3.org/2000/svg" xmlns:xlink="http://www.w3.org/1999/xlink" version="1.1"><g stroke-width="1" stroke-linejoin="bevel"><path d="M2017 1004L2028 783L1852 971Z" fill="#15384f" stroke="#15384f"></path><path d="M2028 783L1780 869L1852 971Z" fill="#15384f" stroke="#15384f"></path><path d="M1729 610L1670 839L1780 869Z" fill="#19435d" stroke="#19435d"></path><path d="M1780 869L1633 937L1852 971Z" fill="#297ea6" stroke="#297ea6"></path><path d="M2017 1004L2268 926L2028 783Z" fill="#1d4e6b" stroke="#1d4e6b"></path><path d="M1670 839L1633 937L1780 869Z" fill="#205a7a" stroke="#205a7a"></path><path d="M1727 1186L2073 1223L2017 1004Z" fill="#205a7a" stroke="#205a7a"></path><path d="M2128 530L1967 540L2028 783Z" fill="#15384f" stroke="#15384f"></path><path d="M2028 783L1729 610L1780 869Z" fill="#1d4e6b" stroke="#1d4e6b"></path><path d="M1727 1186L2017 1004L1852 971Z" fill="#0c2435" stroke="#0c2435"></path><path d="M2017 1004L2220 1139L2268 926Z" fill="#246688" stroke="#246688"></path><path d="M2268 926L2273 728L2028 783Z" fill="#112e42" stroke="#112e42"></path><path d="M1967 540L1729 610L2028 783Z" fill="#205a7a" stroke="#205a7a"></path><path d="M1670 839L1455 950L1633 937Z" fill="#15384f" stroke="#15384f"></path><path d="M2073 1223L2220 1139L2017 1004Z" fill="#0c2435" stroke="#0c2435"></path><path d="M1633 937L1727 1186L1852 971Z" fill="#081a28" stroke="#081a28"></path><path d="M2273 728L2128 530L2028 783Z" fill="#15384f" stroke="#15384f"></path><path d="M2220 1139L2377 1026L2268 926Z" fill="#112e42" stroke="#112e42"></path><path d="M2268 926L2423 800L2273 728Z" fill="#00101c" stroke="#00101c"></path><path d="M1727 1186L2013 1347L2073 1223Z" fill="#081a28" stroke="#081a28"></path><path d="M2073 1223L2156 1337L2220 1139Z" fill="#277297" stroke="#277297"></path><path d="M2220 1139L2456 1238L2377 1026Z" fill="#246688" stroke="#246688"></path><path d="M1633 937L1578 1162L1727 1186Z" fill="#246688" stroke="#246688"></path><path d="M1727 1186L1735 1416L2013 1347Z" fill="#15384f" stroke="#15384f"></path><path d="M2128 530L2045 435L1967 540Z" fill="#1d4e6b" stroke="#1d4e6b"></path><path d="M1967 540L1794 448L1729 610Z" fill="#246688" stroke="#246688"></path><path d="M2045 435L1794 448L1967 540Z" fill="#277297" stroke="#277297"></path><path d="M2377 1026L2423 800L2268 926Z" fill="#081a28" stroke="#081a28"></path><path d="M2342 396L2136 389L2128 530Z" fill="#205a7a" stroke="#205a7a"></path><path d="M2128 530L2136 389L2045 435Z" fill="#246688" stroke="#246688"></path><path d="M1548 378L1529 656L1729 610Z" fill="#205a7a" stroke="#205a7a"></path><path d="M1729 610L1529 656L1670 839Z" fill="#00101c" stroke="#00101c"></path><path d="M1633 937L1455 950L1578 1162Z" fill="#081a28" stroke="#081a28"></path><path d="M2013 1347L2156 1337L2073 1223Z" fill="#081a28" stroke="#081a28"></path><path d="M1529 656L1455 950L1670 839Z" fill="#205a7a" stroke="#205a7a"></path><path d="M2444 600L2128 530L2273 728Z" fill="#246688" stroke="#246688"></path><path d="M2045 435L1979 231L1794 448Z" fill="#112e42" stroke="#112e42"></path><path d="M2423 800L2444 600L2273 728Z" fill="#0c2435" stroke="#0c2435"></path><path d="M1615 1396L1735 1416L1727 1186Z" fill="#297ea6" stroke="#297ea6"></path><path d="M2133 1636L2356 1390L2156 1337Z" fill="#246688" stroke="#246688"></path><path d="M1529 656L1356 828L1455 950Z" fill="#1d4e6b" stroke="#1d4e6b"></path><path d="M1446 1244L1615 1396L1578 1162Z" fill="#1d4e6b" stroke="#1d4e6b"></path><path d="M1578 1162L1615 1396L1727 1186Z" fill="#1d4e6b" stroke="#1d4e6b"></path><path d="M1446 1244L1578 1162L1455 950Z" fill="#112e42" stroke="#112e42"></path><path d="M2356 1390L2456 1238L2220 1139Z" fill="#205a7a" stroke="#205a7a"></path><path d="M2644 1041L2624 763L2423 800Z" fill="#19435d" stroke="#19435d"></path><path d="M2423 800L2624 763L2444 600Z" fill="#15384f" stroke="#15384f"></path><path d="M1175 1007L1446 1244L1455 950Z" fill="#15384f" stroke="#15384f"></path><path d="M2444 600L2342 396L2128 530Z" fill="#205a7a" stroke="#205a7a"></path><path d="M2133 1636L2156 1337L2013 1347Z" fill="#00101c" stroke="#00101c"></path><path d="M2156 1337L2356 1390L2220 1139Z" fill="#277297" stroke="#277297"></path><path d="M1658 244L1548 378L1794 448Z" fill="#205a7a" stroke="#205a7a"></path><path d="M1794 448L1548 378L1729 610Z" fill="#246688" stroke="#246688"></path><path d="M1529 656L1368 545L1356 828Z" fill="#246688" stroke="#246688"></path><path d="M2182 162L1979 231L2136 389Z" fill="#0c2435" stroke="#0c2435"></path><path d="M2136 389L1979 231L2045 435Z" fill="#19435d" stroke="#19435d"></path><path d="M1979 231L1838 225L1794 448Z" fill="#297ea6" stroke="#297ea6"></path><path d="M1548 378L1368 545L1529 656Z" fill="#277297" stroke="#277297"></path><path d="M2644 1041L2423 800L2377 1026Z" fill="#15384f" stroke="#15384f"></path><path d="M2444 600L2562 371L2342 396Z" fill="#205a7a" stroke="#205a7a"></path><path d="M1626 1601L1798 1570L1735 1416Z" fill="#15384f" stroke="#15384f"></path><path d="M1735 1416L1798 1570L2013 1347Z" fill="#081a28" stroke="#081a28"></path><path d="M1626 1601L1735 1416L1615 1396Z" fill="#277297" stroke="#277297"></path><path d="M2620 1138L2377 1026L2456 1238Z" fill="#297ea6" stroke="#297ea6"></path><path d="M2620 1138L2644 1041L2377 1026Z" fill="#19435d" stroke="#19435d"></path><path d="M1838 225L1658 244L1794 448Z" fill="#205a7a" stroke="#205a7a"></path><path d="M1548 378L1410 399L1368 545Z" fill="#00101c" stroke="#00101c"></path><path d="M2551 1400L2620 1138L2456 1238Z" fill="#277297" stroke="#277297"></path><path d="M1798 1570L1970 1602L2013 1347Z" fill="#081a28" stroke="#081a28"></path><path d="M1387 245L1410 399L1548 378Z" fill="#00101c" stroke="#00101c"></path><path d="M2848 610L2611 542L2624 763Z" fill="#205a7a" stroke="#205a7a"></path><path d="M2624 763L2611 542L2444 600Z" fill="#297ea6" stroke="#297ea6"></path><path d="M2562 371L2332 249L2342 396Z" fill="#00101c" stroke="#00101c"></path><path d="M2342 396L2332 249L2136 389Z" fill="#1d4e6b" stroke="#1d4e6b"></path><path d="M2332 249L2182 162L2136 389Z" fill="#15384f" stroke="#15384f"></path><path d="M1979 231L1838 0L1838 225Z" fill="#0c2435" stroke="#0c2435"></path><path d="M1559 0L1387 245L1658 244Z" fill="#112e42" stroke="#112e42"></path><path d="M2240 1752L2133 1636L2029 1810Z" fill="#297ea6" stroke="#297ea6"></path><path d="M1970 1602L2133 1636L2013 1347Z" fill="#1d4e6b" stroke="#1d4e6b"></path><path d="M2356 1390L2551 1400L2456 1238Z" fill="#246688" stroke="#246688"></path><path d="M1272 1401L1402 1425L1446 1244Z" fill="#1d4e6b" stroke="#1d4e6b"></path><path d="M1446 1244L1402 1425L1615 1396Z" fill="#205a7a" stroke="#205a7a"></path><path d="M1402 1425L1626 1601L1615 1396Z" fill="#0c2435" stroke="#0c2435"></path><path d="M1798 1570L1815 1793L1970 1602Z" fill="#112e42" stroke="#112e42"></path><path d="M2557 1590L2551 1400L2356 1390Z" fill="#00101c" stroke="#00101c"></path><path d="M1161 759L1175 1007L1356 828Z" fill="#246688" stroke="#246688"></path><path d="M1356 828L1175 1007L1455 950Z" fill="#1d4e6b" stroke="#1d4e6b"></path><path d="M1161 759L1356 828L1368 545Z" fill="#00101c" stroke="#00101c"></path><path d="M2611 542L2562 371L2444 600Z" fill="#0c2435" stroke="#0c2435"></path><path d="M2193 0L2017 0L2182 162Z" fill="#277297" stroke="#277297"></path><path d="M1192 556L1161 759L1368 545Z" fill="#15384f" stroke="#15384f"></path><path d="M1173 439L1192 556L1368 545Z" fill="#246688" stroke="#246688"></path><path d="M1049 938L1138 1133L1175 1007Z" fill="#297ea6" stroke="#297ea6"></path><path d="M1175 1007L1138 1133L1446 1244Z" fill="#112e42" stroke="#112e42"></path><path d="M1138 1133L1272 1401L1446 1244Z" fill="#246688" stroke="#246688"></path><path d="M1402 1425L1465 1643L1626 1601Z" fill="#0c2435" stroke="#0c2435"></path><path d="M1838 0L1658 244L1838 225Z" fill="#297ea6" stroke="#297ea6"></path><path d="M1658 244L1387 245L1548 378Z" fill="#19435d" stroke="#19435d"></path><path d="M1410 399L1173 439L1368 545Z" fill="#1d4e6b" stroke="#1d4e6b"></path><path d="M2841 1139L2810 962L2644 1041Z" fill="#205a7a" stroke="#205a7a"></path><path d="M2644 1041L2810 962L2624 763Z" fill="#15384f" stroke="#15384f"></path><path d="M2845 329L2745 247L2562 371Z" fill="#19435d" stroke="#19435d"></path><path d="M2841 1139L2644 1041L2620 1138Z" fill="#277297" stroke="#277297"></path><path d="M2810 962L2823 871L2624 763Z" fill="#15384f" stroke="#15384f"></path><path d="M2193 0L2182 162L2339 0Z" fill="#112e42" stroke="#112e42"></path><path d="M2182 162L2017 0L1979 231Z" fill="#19435d" stroke="#19435d"></path><path d="M1192 556L1066 761L1161 759Z" fill="#15384f" stroke="#15384f"></path><path d="M1161 759L1049 938L1175 1007Z" fill="#205a7a" stroke="#205a7a"></path><path d="M2017 0L1838 0L1979 231Z" fill="#112e42" stroke="#112e42"></path><path d="M1255 1580L1465 1643L1402 1425Z" fill="#1d4e6b" stroke="#1d4e6b"></path><path d="M2029 1810L2133 1636L1970 1602Z" fill="#15384f" stroke="#15384f"></path><path d="M1387 245L1173 439L1410 399Z" fill="#19435d" stroke="#19435d"></path><path d="M1192 556L970 562L1066 761Z" fill="#15384f" stroke="#15384f"></path><path d="M1066 761L1049 938L1161 759Z" fill="#15384f" stroke="#15384f"></path><path d="M1815 1793L1798 1570L1626 1601Z" fill="#1d4e6b" stroke="#1d4e6b"></path><path d="M2133 1636L2449 1668L2356 1390Z" fill="#081a28" stroke="#081a28"></path><path d="M1591 1732L1815 1793L1626 1601Z" fill="#112e42" stroke="#112e42"></path><path d="M1465 1643L1591 1732L1626 1601Z" fill="#15384f" stroke="#15384f"></path><path d="M2859 1349L2841 1139L2620 1138Z" fill="#19435d" stroke="#19435d"></path><path d="M2810 962L2996 938L2823 871Z" fill="#15384f" stroke="#15384f"></path><path d="M2859 1349L2620 1138L2551 1400Z" fill="#0c2435" stroke="#0c2435"></path><path d="M2339 0L2182 162L2332 249Z" fill="#297ea6" stroke="#297ea6"></path><path d="M2240 1752L2449 1668L2133 1636Z" fill="#297ea6" stroke="#297ea6"></path><path d="M1815 1793L2029 1810L1970 1602Z" fill="#19435d" stroke="#19435d"></path><path d="M2449 1668L2557 1590L2356 1390Z" fill="#19435d" stroke="#19435d"></path><path d="M3005 847L2848 610L2823 871Z" fill="#19435d" stroke="#19435d"></path><path d="M2823 871L2848 610L2624 763Z" fill="#00101c" stroke="#00101c"></path><path d="M2562 371L2560 159L2332 249Z" fill="#277297" stroke="#277297"></path><path d="M2745 247L2560 159L2562 371Z" fill="#112e42" stroke="#112e42"></path><path d="M2560 159L2339 0L2332 249Z" fill="#19435d" stroke="#19435d"></path><path d="M1838 0L1559 0L1658 244Z" fill="#277297" stroke="#277297"></path><path d="M1027 217L981 439L1173 439Z" fill="#277297" stroke="#277297"></path><path d="M1064 1463L1255 1580L1272 1401Z" fill="#15384f" stroke="#15384f"></path><path d="M1272 1401L1255 1580L1402 1425Z" fill="#19435d" stroke="#19435d"></path><path d="M1465 1643L1379 1751L1591 1732Z" fill="#0c2435" stroke="#0c2435"></path><path d="M1064 1463L1272 1401L1138 1133Z" fill="#19435d" stroke="#19435d"></path><path d="M2766 1639L2859 1349L2551 1400Z" fill="#277297" stroke="#277297"></path><path d="M2841 1139L2996 938L2810 962Z" fill="#246688" stroke="#246688"></path><path d="M2845 329L2562 371L2611 542Z" fill="#15384f" stroke="#15384f"></path><path d="M2560 159L2581 0L2339 0Z" fill="#297ea6" stroke="#297ea6"></path><path d="M1255 1580L1379 1751L1465 1643Z" fill="#0c2435" stroke="#0c2435"></path><path d="M1786 2000L2029 1810L1815 1793Z" fill="#246688" stroke="#246688"></path><path d="M981 439L970 562L1173 439Z" fill="#00101c" stroke="#00101c"></path><path d="M1173 439L970 562L1192 556Z" fill="#297ea6" stroke="#297ea6"></path><path d="M745 867L759 962L1049 938Z" fill="#19435d" stroke="#19435d"></path><path d="M2449 1668L2567 1730L2557 1590Z" fill="#0c2435" stroke="#0c2435"></path><path d="M2557 1590L2766 1639L2551 1400Z" fill="#277297" stroke="#277297"></path><path d="M2393 1844L2567 1730L2449 1668Z" fill="#246688" stroke="#246688"></path><path d="M2393 1844L2449 1668L2240 1752Z" fill="#081a28" stroke="#081a28"></path><path d="M3033 1182L2996 938L2841 1139Z" fill="#1d4e6b" stroke="#1d4e6b"></path><path d="M2848 610L2845 329L2611 542Z" fill="#1d4e6b" stroke="#1d4e6b"></path><path d="M2221 2000L2393 1844L2240 1752Z" fill="#205a7a" stroke="#205a7a"></path><path d="M2221 2000L2240 1752L2029 1810Z" fill="#112e42" stroke="#112e42"></path><path d="M2996 938L3005 847L2823 871Z" fill="#205a7a" stroke="#205a7a"></path><path d="M1559 0L1392 0L1387 245Z" fill="#1d4e6b" stroke="#1d4e6b"></path><path d="M2996 444L2845 329L2848 610Z" fill="#1d4e6b" stroke="#1d4e6b"></path><path d="M759 962L941 1181L1049 938Z" fill="#19435d" stroke="#19435d"></path><path d="M1049 938L941 1181L1138 1133Z" fill="#0c2435" stroke="#0c2435"></path><path d="M1255 1580L1239 1824L1379 1751Z" fill="#00101c" stroke="#00101c"></path><path d="M941 1181L1064 1463L1138 1133Z" fill="#0c2435" stroke="#0c2435"></path><path d="M1161 126L1173 439L1387 245Z" fill="#0c2435" stroke="#0c2435"></path><path d="M2825 0L2581 0L2745 247Z" fill="#277297" stroke="#277297"></path><path d="M2745 247L2581 0L2560 159Z" fill="#205a7a" stroke="#205a7a"></path><path d="M1256 0L1161 126L1387 245Z" fill="#15384f" stroke="#15384f"></path><path d="M2567 1730L2766 1639L2557 1590Z" fill="#00101c" stroke="#00101c"></path><path d="M2859 1349L3033 1182L2841 1139Z" fill="#1d4e6b" stroke="#1d4e6b"></path><path d="M2774 1870L2766 1639L2567 1730Z" fill="#205a7a" stroke="#205a7a"></path><path d="M1786 2000L1815 1793L1603 2000Z" fill="#277297" stroke="#277297"></path><path d="M1786 2000L2045 2000L2029 1810Z" fill="#277297" stroke="#277297"></path><path d="M3065 1445L3033 1182L2859 1349Z" fill="#297ea6" stroke="#297ea6"></path><path d="M2996 938L3182 836L3005 847Z" fill="#00101c" stroke="#00101c"></path><path d="M1603 2000L1815 1793L1591 1732Z" fill="#277297" stroke="#277297"></path><path d="M1392 0L1256 0L1387 245Z" fill="#00101c" stroke="#00101c"></path><path d="M3069 623L2996 444L2848 610Z" fill="#00101c" stroke="#00101c"></path><path d="M2845 329L2962 270L2745 247Z" fill="#081a28" stroke="#081a28"></path><path d="M3069 623L2848 610L3005 847Z" fill="#0c2435" stroke="#0c2435"></path><path d="M2045 2000L2221 2000L2029 1810Z" fill="#112e42" stroke="#112e42"></path><path d="M2393 1844L2623 2000L2567 1730Z" fill="#297ea6" stroke="#297ea6"></path><path d="M1061 0L1027 217L1161 126Z" fill="#246688" stroke="#246688"></path><path d="M1161 126L1027 217L1173 439Z" fill="#277297" stroke="#277297"></path><path d="M3182 836L3069 623L3005 847Z" fill="#205a7a" stroke="#205a7a"></path><path d="M822 1467L1006 1560L1064 1463Z" fill="#1d4e6b" stroke="#1d4e6b"></path><path d="M1064 1463L1006 1560L1255 1580Z" fill="#205a7a" stroke="#205a7a"></path><path d="M1450 2000L1603 2000L1591 1732Z" fill="#1d4e6b" stroke="#1d4e6b"></path><path d="M1450 2000L1591 1732L1379 1751Z" fill="#15384f" stroke="#15384f"></path><path d="M1006 1560L1239 1824L1255 1580Z" fill="#15384f" stroke="#15384f"></path><path d="M3157 386L2962 270L2996 444Z" fill="#205a7a" stroke="#205a7a"></path><path d="M2996 444L2962 270L2845 329Z" fill="#112e42" stroke="#112e42"></path><path d="M745 867L1049 938L1066 761Z" fill="#0c2435" stroke="#0c2435"></path><path d="M941 1181L822 1467L1064 1463Z" fill="#1d4e6b" stroke="#1d4e6b"></path><path d="M745 867L1066 761L727 649Z" fill="#081a28" stroke="#081a28"></path><path d="M1066 761L970 562L727 649Z" fill="#112e42" stroke="#112e42"></path><path d="M2221 2000L2432 2000L2393 1844Z" fill="#277297" stroke="#277297"></path><path d="M727 649L970 562L772 446Z" fill="#297ea6" stroke="#297ea6"></path><path d="M3056 1753L2957 1577L2766 1639Z" fill="#00101c" stroke="#00101c"></path><path d="M2766 1639L2957 1577L2859 1349Z" fill="#15384f" stroke="#15384f"></path><path d="M1239 1824L1450 2000L1379 1751Z" fill="#19435d" stroke="#19435d"></path><path d="M3207 1039L3182 836L2996 938Z" fill="#205a7a" stroke="#205a7a"></path><path d="M3069 623L3157 386L2996 444Z" fill="#15384f" stroke="#15384f"></path><path d="M3207 1039L2996 938L3033 1182Z" fill="#246688" stroke="#246688"></path><path d="M2957 1577L3065 1445L2859 1349Z" fill="#1d4e6b" stroke="#1d4e6b"></path><path d="M2962 270L2825 0L2745 247Z" fill="#15384f" stroke="#15384f"></path><path d="M772 446L970 562L981 439Z" fill="#081a28" stroke="#081a28"></path><path d="M649 1156L742 1211L759 962Z" fill="#00101c" stroke="#00101c"></path><path d="M759 962L742 1211L941 1181Z" fill="#19435d" stroke="#19435d"></path><path d="M646 853L759 962L745 867Z" fill="#1d4e6b" stroke="#1d4e6b"></path><path d="M1256 0L1061 0L1161 126Z" fill="#205a7a" stroke="#205a7a"></path><path d="M820 149L772 446L981 439Z" fill="#112e42" stroke="#112e42"></path><path d="M3182 1203L3207 1039L3033 1182Z" fill="#246688" stroke="#246688"></path><path d="M820 149L981 439L1027 217Z" fill="#19435d" stroke="#19435d"></path><path d="M3202 1368L3182 1203L3033 1182Z" fill="#205a7a" stroke="#205a7a"></path><path d="M742 1211L822 1467L941 1181Z" fill="#15384f" stroke="#15384f"></path><path d="M1006 1560L973 1818L1239 1824Z" fill="#0c2435" stroke="#0c2435"></path><path d="M2623 2000L2774 1870L2567 1730Z" fill="#0c2435" stroke="#0c2435"></path><path d="M3166 1598L3202 1368L3065 1445Z" fill="#112e42" stroke="#112e42"></path><path d="M2432 2000L2623 2000L2393 1844Z" fill="#15384f" stroke="#15384f"></path><path d="M3245 552L3157 386L3069 623Z" fill="#112e42" stroke="#112e42"></path><path d="M2962 270L2938 0L2825 0Z" fill="#112e42" stroke="#112e42"></path><path d="M3245 552L3069 623L3182 836Z" fill="#277297" stroke="#277297"></path><path d="M637 664L646 853L727 649Z" fill="#00101c" stroke="#00101c"></path><path d="M727 649L646 853L745 867Z" fill="#0c2435" stroke="#0c2435"></path><path d="M3222 227L2938 0L2962 270Z" fill="#15384f" stroke="#15384f"></path><path d="M538 962L649 1156L759 962Z" fill="#00101c" stroke="#00101c"></path><path d="M665 1360L771 1546L822 1467Z" fill="#0c2435" stroke="#0c2435"></path><path d="M3370 575L3245 552L3182 836Z" fill="#00101c" stroke="#00101c"></path><path d="M772 446L637 664L727 649Z" fill="#297ea6" stroke="#297ea6"></path><path d="M646 853L538 962L759 962Z" fill="#277297" stroke="#277297"></path><path d="M3166 1598L3065 1445L2957 1577Z" fill="#15384f" stroke="#15384f"></path><path d="M3065 1445L3202 1368L3033 1182Z" fill="#00101c" stroke="#00101c"></path><path d="M3182 1203L3366 1243L3207 1039Z" fill="#081a28" stroke="#081a28"></path><path d="M3461 811L3370 575L3182 836Z" fill="#277297" stroke="#277297"></path><path d="M771 1546L1006 1560L822 1467Z" fill="#1d4e6b" stroke="#1d4e6b"></path><path d="M766 1769L973 1818L1006 1560Z" fill="#246688" stroke="#246688"></path><path d="M1239 1824L1140 2000L1450 2000Z" fill="#277297" stroke="#277297"></path><path d="M665 1360L822 1467L742 1211Z" fill="#246688" stroke="#246688"></path><path d="M2623 2000L2730 2000L2774 1870Z" fill="#1d4e6b" stroke="#1d4e6b"></path><path d="M2774 1870L3056 1753L2766 1639Z" fill="#1d4e6b" stroke="#1d4e6b"></path><path d="M1061 0L820 149L1027 217Z" fill="#297ea6" stroke="#297ea6"></path><path d="M772 446L619 387L637 664Z" fill="#15384f" stroke="#15384f"></path><path d="M649 1156L665 1360L742 1211Z" fill="#1d4e6b" stroke="#1d4e6b"></path><path d="M973 1818L1140 2000L1239 1824Z" fill="#081a28" stroke="#081a28"></path><path d="M2949 2000L3056 1753L2774 1870Z" fill="#1d4e6b" stroke="#1d4e6b"></path><path d="M3056 1753L3166 1598L2957 1577Z" fill="#081a28" stroke="#081a28"></path><path d="M414 748L538 962L646 853Z" fill="#112e42" stroke="#112e42"></path><path d="M649 1156L401 1246L665 1360Z" fill="#0c2435" stroke="#0c2435"></path><path d="M631 214L619 387L772 446Z" fill="#0c2435" stroke="#0c2435"></path><path d="M637 664L414 748L646 853Z" fill="#19435d" stroke="#19435d"></path><path d="M3343 418L3222 227L3157 386Z" fill="#15384f" stroke="#15384f"></path><path d="M3157 386L3222 227L2962 270Z" fill="#15384f" stroke="#15384f"></path><path d="M973 1818L1038 2000L1140 2000Z" fill="#0c2435" stroke="#0c2435"></path><path d="M760 2000L1038 2000L973 1818Z" fill="#112e42" stroke="#112e42"></path><path d="M665 1360L665 1555L771 1546Z" fill="#246688" stroke="#246688"></path><path d="M771 1546L766 1769L1006 1560Z" fill="#19435d" stroke="#19435d"></path><path d="M421 1377L665 1555L665 1360Z" fill="#081a28" stroke="#081a28"></path><path d="M3434 1029L3182 836L3207 1039Z" fill="#15384f" stroke="#15384f"></path><path d="M3245 552L3343 418L3157 386Z" fill="#1d4e6b" stroke="#1d4e6b"></path><path d="M3366 1243L3182 1203L3202 1368Z" fill="#112e42" stroke="#112e42"></path><path d="M3377 1351L3366 1243L3202 1368Z" fill="#205a7a" stroke="#205a7a"></path><path d="M3370 575L3343 418L3245 552Z" fill="#081a28" stroke="#081a28"></path><path d="M665 1555L766 1769L771 1546Z" fill="#277297" stroke="#277297"></path><path d="M757 0L631 214L820 149Z" fill="#205a7a" stroke="#205a7a"></path><path d="M820 149L631 214L772 446Z" fill="#19435d" stroke="#19435d"></path><path d="M340 567L414 748L637 664Z" fill="#19435d" stroke="#19435d"></path><path d="M3366 1243L3434 1029L3207 1039Z" fill="#081a28" stroke="#081a28"></path><path d="M2730 2000L2949 2000L2774 1870Z" fill="#277297" stroke="#277297"></path><path d="M3056 1753L3177 1813L3166 1598Z" fill="#0c2435" stroke="#0c2435"></path><path d="M3166 1598L3377 1351L3202 1368Z" fill="#205a7a" stroke="#205a7a"></path><path d="M1061 0L757 0L820 149Z" fill="#1d4e6b" stroke="#1d4e6b"></path><path d="M3380 1663L3377 1351L3166 1598Z" fill="#0c2435" stroke="#0c2435"></path><path d="M3366 1243L3579 1135L3434 1029Z" fill="#15384f" stroke="#15384f"></path><path d="M3434 1029L3461 811L3182 836Z" fill="#205a7a" stroke="#205a7a"></path><path d="M3541 241L3343 223L3343 418Z" fill="#15384f" stroke="#15384f"></path><path d="M2949 2000L3177 1813L3056 1753Z" fill="#1d4e6b" stroke="#1d4e6b"></path><path d="M3336 0L3210 0L3222 227Z" fill="#1d4e6b" stroke="#1d4e6b"></path><path d="M3222 227L3210 0L2938 0Z" fill="#205a7a" stroke="#205a7a"></path><path d="M3540 405L3343 418L3370 575Z" fill="#081a28" stroke="#081a28"></path><path d="M3343 418L3343 223L3222 227Z" fill="#0c2435" stroke="#0c2435"></path><path d="M340 567L637 664L619 387Z" fill="#112e42" stroke="#112e42"></path><path d="M538 962L401 1246L649 1156Z" fill="#0c2435" stroke="#0c2435"></path><path d="M357 964L401 1246L538 962Z" fill="#297ea6" stroke="#297ea6"></path><path d="M628 1865L760 2000L766 1769Z" fill="#00101c" stroke="#00101c"></path><path d="M414 748L357 964L538 962Z" fill="#19435d" stroke="#19435d"></path><path d="M395 1656L421 1377L180 1361Z" fill="#205a7a" stroke="#205a7a"></path><path d="M401 1246L421 1377L665 1360Z" fill="#297ea6" stroke="#297ea6"></path><path d="M3439 1774L3380 1663L3177 1813Z" fill="#00101c" stroke="#00101c"></path><path d="M3177 1813L3380 1663L3166 1598Z" fill="#1d4e6b" stroke="#1d4e6b"></path><path d="M3551 1350L3579 1135L3366 1243Z" fill="#112e42" stroke="#112e42"></path><path d="M3647 1023L3643 799L3461 811Z" fill="#15384f" stroke="#15384f"></path><path d="M628 1865L766 1769L665 1555Z" fill="#15384f" stroke="#15384f"></path><path d="M766 1769L760 2000L973 1818Z" fill="#15384f" stroke="#15384f"></path><path d="M3551 1350L3366 1243L3377 1351Z" fill="#297ea6" stroke="#297ea6"></path><path d="M3532 0L3336 0L3343 223Z" fill="#15384f" stroke="#15384f"></path><path d="M3540 405L3370 575L3579 539Z" fill="#081a28" stroke="#081a28"></path><path d="M3343 223L3336 0L3222 227Z" fill="#081a28" stroke="#081a28"></path><path d="M395 1656L628 1865L665 1555Z" fill="#00101c" stroke="#00101c"></path><path d="M340 462L340 567L619 387Z" fill="#246688" stroke="#246688"></path><path d="M414 748L163 782L357 964Z" fill="#246688" stroke="#246688"></path><path d="M340 462L619 387L434 162Z" fill="#1d4e6b" stroke="#1d4e6b"></path><path d="M757 0L560 0L631 214Z" fill="#081a28" stroke="#081a28"></path><path d="M3579 539L3370 575L3461 811Z" fill="#277297" stroke="#277297"></path><path d="M3380 1663L3551 1350L3377 1351Z" fill="#081a28" stroke="#081a28"></path><path d="M3643 799L3579 539L3461 811Z" fill="#19435d" stroke="#19435d"></path><path d="M434 162L619 387L631 214Z" fill="#15384f" stroke="#15384f"></path><path d="M560 0L434 162L631 214Z" fill="#081a28" stroke="#081a28"></path><path d="M3647 1023L3461 811L3434 1029Z" fill="#246688" stroke="#246688"></path><path d="M3647 1023L3434 1029L3579 1135Z" fill="#15384f" stroke="#15384f"></path><path d="M3804 1157L3647 1023L3579 1135Z" fill="#246688" stroke="#246688"></path><path d="M3540 405L3541 241L3343 418Z" fill="#277297" stroke="#277297"></path><path d="M3790 360L3541 241L3540 405Z" fill="#277297" stroke="#277297"></path><path d="M3790 360L3540 405L3579 539Z" fill="#19435d" stroke="#19435d"></path><path d="M2949 2000L3262 2000L3177 1813Z" fill="#15384f" stroke="#15384f"></path><path d="M3380 1663L3672 1588L3551 1350Z" fill="#1d4e6b" stroke="#1d4e6b"></path><path d="M381 2000L636 2000L628 1865Z" fill="#15384f" stroke="#15384f"></path><path d="M628 1865L636 2000L760 2000Z" fill="#19435d" stroke="#19435d"></path><path d="M3262 2000L3439 1774L3177 1813Z" fill="#205a7a" stroke="#205a7a"></path><path d="M3551 1350L3804 1157L3579 1135Z" fill="#1d4e6b" stroke="#1d4e6b"></path><path d="M421 1377L395 1656L665 1555Z" fill="#1d4e6b" stroke="#1d4e6b"></path><path d="M180 1361L421 1377L401 1246Z" fill="#0c2435" stroke="#0c2435"></path><path d="M136 549L340 567L340 462Z" fill="#1d4e6b" stroke="#1d4e6b"></path><path d="M136 549L163 782L340 567Z" fill="#297ea6" stroke="#297ea6"></path><path d="M340 567L163 782L414 748Z" fill="#205a7a" stroke="#205a7a"></path><path d="M139 1036L174 1250L401 1246Z" fill="#277297" stroke="#277297"></path><path d="M198 1667L376 1778L395 1656Z" fill="#19435d" stroke="#19435d"></path><path d="M395 1656L376 1778L628 1865Z" fill="#1d4e6b" stroke="#1d4e6b"></path><path d="M3760 129L3532 0L3541 241Z" fill="#0c2435" stroke="#0c2435"></path><path d="M3541 241L3532 0L3343 223Z" fill="#0c2435" stroke="#0c2435"></path><path d="M139 1036L401 1246L357 964Z" fill="#0c2435" stroke="#0c2435"></path><path d="M560 0L370 0L434 162Z" fill="#0c2435" stroke="#0c2435"></path><path d="M159 333L136 549L340 462Z" fill="#19435d" stroke="#19435d"></path><path d="M163 782L139 1036L357 964Z" fill="#19435d" stroke="#19435d"></path><path d="M0 1236L180 1361L174 1250Z" fill="#277297" stroke="#277297"></path><path d="M174 1250L180 1361L401 1246Z" fill="#246688" stroke="#246688"></path><path d="M3262 2000L3420 2000L3439 1774Z" fill="#0c2435" stroke="#0c2435"></path><path d="M3439 1774L3672 1588L3380 1663Z" fill="#19435d" stroke="#19435d"></path><path d="M159 333L340 462L434 162Z" fill="#15384f" stroke="#15384f"></path><path d="M163 782L0 777L139 1036Z" fill="#277297" stroke="#277297"></path><path d="M3630 1798L3672 1588L3439 1774Z" fill="#00101c" stroke="#00101c"></path><path d="M3871 926L3865 798L3643 799Z" fill="#15384f" stroke="#15384f"></path><path d="M3852 1336L3804 1157L3551 1350Z" fill="#112e42" stroke="#112e42"></path><path d="M3643 799L3800 548L3579 539Z" fill="#081a28" stroke="#081a28"></path><path d="M3865 798L3800 548L3643 799Z" fill="#277297" stroke="#277297"></path><path d="M197 137L159 333L434 162Z" fill="#246688" stroke="#246688"></path><path d="M3420 2000L3630 1798L3439 1774Z" fill="#15384f" stroke="#15384f"></path><path d="M3672 1588L3752 1582L3551 1350Z" fill="#112e42" stroke="#112e42"></path><path d="M3800 548L3790 360L3579 539Z" fill="#0c2435" stroke="#0c2435"></path><path d="M370 0L197 137L434 162Z" fill="#19435d" stroke="#19435d"></path><path d="M3871 926L3643 799L3647 1023Z" fill="#081a28" stroke="#081a28"></path><path d="M3800 548L4000 392L3790 360Z" fill="#0c2435" stroke="#0c2435"></path><path d="M4000 937L3871 926L4000 1166Z" fill="#112e42" stroke="#112e42"></path><path d="M3804 1157L3871 926L3647 1023Z" fill="#15384f" stroke="#15384f"></path><path d="M180 1361L198 1667L395 1656Z" fill="#297ea6" stroke="#297ea6"></path><path d="M376 1778L381 2000L628 1865Z" fill="#205a7a" stroke="#205a7a"></path><path d="M0 1423L198 1667L180 1361Z" fill="#1d4e6b" stroke="#1d4e6b"></path><path d="M215 1854L381 2000L376 1778Z" fill="#1d4e6b" stroke="#1d4e6b"></path><path d="M3738 1745L3752 1582L3672 1588Z" fill="#205a7a" stroke="#205a7a"></path><path d="M3752 1582L3852 1336L3551 1350Z" fill="#246688" stroke="#246688"></path><path d="M0 669L136 549L0 422Z" fill="#246688" stroke="#246688"></path><path d="M0 669L163 782L136 549Z" fill="#205a7a" stroke="#205a7a"></path><path d="M0 669L0 777L163 782Z" fill="#19435d" stroke="#19435d"></path><path d="M139 1036L0 1236L174 1250Z" fill="#277297" stroke="#277297"></path><path d="M3790 360L3760 129L3541 241Z" fill="#00101c" stroke="#00101c"></path><path d="M3790 0L3760 129L4000 151Z" fill="#19435d" stroke="#19435d"></path><path d="M0 777L0 1051L139 1036Z" fill="#00101c" stroke="#00101c"></path><path d="M0 422L136 549L159 333Z" fill="#246688" stroke="#246688"></path><path d="M3630 1798L3738 1745L3672 1588Z" fill="#0c2435" stroke="#0c2435"></path><path d="M4000 1541L4000 1365L3852 1336Z" fill="#0c2435" stroke="#0c2435"></path><path d="M3844 2000L3738 1745L3630 1798Z" fill="#277297" stroke="#277297"></path><path d="M0 1051L0 1236L139 1036Z" fill="#081a28" stroke="#081a28"></path><path d="M370 0L177 0L197 137Z" fill="#15384f" stroke="#15384f"></path><path d="M0 255L0 422L159 333Z" fill="#1d4e6b" stroke="#1d4e6b"></path><path d="M0 1807L215 1854L198 1667Z" fill="#112e42" stroke="#112e42"></path><path d="M198 1667L215 1854L376 1778Z" fill="#205a7a" stroke="#205a7a"></path><path d="M3420 2000L3626 2000L3630 1798Z" fill="#19435d" stroke="#19435d"></path><path d="M0 255L159 333L197 137Z" fill="#112e42" stroke="#112e42"></path><path d="M0 1236L0 1423L180 1361Z" fill="#205a7a" stroke="#205a7a"></path><path d="M0 2000L256 2000L215 1854Z" fill="#081a28" stroke="#081a28"></path><path d="M215 1854L256 2000L381 2000Z" fill="#205a7a" stroke="#205a7a"></path><path d="M4000 151L3760 129L3790 360Z" fill="#246688" stroke="#246688"></path><path d="M3760 129L3790 0L3532 0Z" fill="#1d4e6b" stroke="#1d4e6b"></path><path d="M4000 1166L3804 1157L3852 1336Z" fill="#19435d" stroke="#19435d"></path><path d="M4000 1166L3871 926L3804 1157Z" fill="#205a7a" stroke="#205a7a"></path><path d="M3871 926L4000 937L3865 798Z" fill="#081a28" stroke="#081a28"></path><path d="M3865 798L4000 593L3800 548Z" fill="#19435d" stroke="#19435d"></path><path d="M4000 937L4000 731L3865 798Z" fill="#277297" stroke="#277297"></path><path d="M0 0L0 255L197 137Z" fill="#1d4e6b" stroke="#1d4e6b"></path><path d="M4000 1365L4000 1166L3852 1336Z" fill="#00101c" stroke="#00101c"></path><path d="M3852 1336L3752 1582L4000 1541Z" fill="#081a28" stroke="#081a28"></path><path d="M4000 731L4000 593L3865 798Z" fill="#297ea6" stroke="#297ea6"></path><path d="M0 1423L0 1621L198 1667Z" fill="#15384f" stroke="#15384f"></path><path d="M4000 1541L3752 1582L3738 1745Z" fill="#297ea6" stroke="#297ea6"></path><path d="M4000 593L4000 392L3800 548Z" fill="#15384f" stroke="#15384f"></path><path d="M4000 1845L4000 1541L3738 1745Z" fill="#15384f" stroke="#15384f"></path><path d="M177 0L0 0L197 137Z" fill="#112e42" stroke="#112e42"></path><path d="M0 1621L0 1807L198 1667Z" fill="#00101c" stroke="#00101c"></path><path d="M4000 392L4000 151L3790 360Z" fill="#297ea6" stroke="#297ea6"></path><path d="M3626 2000L3844 2000L3630 1798Z" fill="#19435d" stroke="#19435d"></path><path d="M4000 151L4000 0L3790 0Z" fill="#19435d" stroke="#19435d"></path><path d="M0 1807L0 2000L215 1854Z" fill="#205a7a" stroke="#205a7a"></path><path d="M3844 2000L4000 1845L3738 1745Z" fill="#081a28" stroke="#081a28"></path><path d="M3844 2000L4000 2000L4000 1845Z" fill="#112e42" stroke="#112e42"></path></g></svg>