<svg id="visual" viewBox="0 0 4000 2000" width="4000" height="2000" xmlns="http://www.w3.org/2000/svg" xmlns:xlink="http://www.w3.org/1999/xlink" version="1.1"><rect width="4000" height="2000" fill="#001829"></rect><g><g transform="translate(774 1111)"><path d="M0 -565.8L490 -282.9L490 282.9L0 565.8L-490 282.9L-490 -282.9Z" fill="#297EA6"></path></g><g transform="translate(2274 1178)"><path d="M0 -522L452.1 -261L452.1 261L0 522L-452.1 261L-452.1 -261Z" fill="#297EA6"></path></g><g transform="translate(29 54)"><path d="M0 -303L262.4 -151.5L262.4 151.5L0 303L-262.4 151.5L-262.4 -151.5Z" fill="#297EA6"></path></g><g transform="translate(3811 458)"><path d="M0 -464L401.8 -232L401.8 232L0 464L-401.8 232L-401.8 -232Z" fill="#297EA6"></path></g></g></svg>